<svg xmlns="http://www.w3.org/2000/svg" width="32" height="32" fill="none" viewBox="0 0 32 32"><g id="handshake (2) 1"><g id="Group"><g id="Group_2"><path id="Vector" fill="#FFCD29" d="M16 1.133a.937.937 0 0 0-.938.937v2.813a.937.937 0 1 0 1.876 0V2.07A.937.937 0 0 0 16 1.133Z"/></g></g><g id="Group_3"><g id="Group_4"><path id="Vector_2" fill="#FFCD29" d="M11.038 7.032 9.163 5.157a.937.937 0 1 0-1.326 1.326l1.875 1.875a.937.937 0 1 0 1.326-1.326Z"/></g></g><g id="Group_5"><g id="Group_6"><path id="Vector_3" fill="#FFCD29" d="M24.163 5.157a.937.937 0 0 0-1.326 0l-1.875 1.875a.937.937 0 1 0 1.326 1.326l1.875-1.875a.937.937 0 0 0 0-1.326Z"/></g></g><g id="Group_7"><g id="Group_8"><path id="Vector_4" fill="#9B3A21" d="M31.063 14.258h-2.875v13.125h2.875c.518 0 .937-.42.937-.938v-11.25a.937.937 0 0 0-.938-.937Z"/></g></g><g id="Group_9"><g id="Group_10"><path id="Vector_5" fill="#9B3A21" d="M.938 14.258a.937.937 0 0 0-.938.937v11.25c0 .518.42.938.938.938h2.875V14.258H.937Z"/></g></g><g id="Group_11"><g id="Group_12"><path id="Vector_6" fill="#F75D34" d="M15.284 15.195c-.715 0-1.358.398-1.677 1.037l-2.854 5.709c.478.21.983.316 1.5.316a3.728 3.728 0 0 0 3.351-2.078l.618-1.234h1.814c.494 0 .977.2 1.326.55l6.95 6.95v-11.25H15.284Z"/></g></g><g id="Group_13"><g id="Group_14"><path id="Vector_7" fill="#F75D34" d="M18.036 20.82h-.655l-.055.109c-.885 1.77-2.612 3.021-4.586 3.182-1.452.12-2.458-.299-3.651-.841a.943.943 0 0 1-.458-1.277l3.298-6.599a3.75 3.75 0 0 1 3.355-2.074h4.046c.26-.575.42-1.203.42-1.875a.937.937 0 0 0-.938-.937h-7.278c-1.066 0-2.04.602-2.516 1.555l-.838 1.676a.938.938 0 0 1-.84.519H5.689v13.125h4.299l2.656 2.656a2.78 2.78 0 0 0 2.835.693l8.006-2.517a2.712 2.712 0 0 0 1.211-.735l-6.659-6.66Z"/></g></g></g></svg>