<svg xmlns="http://www.w3.org/2000/svg" width="33" height="32" fill="none" viewBox="0 0 33 32"><g id="Group 1000004891"><g id="Group 1000004299"><g id="Group 1000004295"><g id="Group 1000004895"><g id="Group 1000004896"><path id="Vector" fill="#F75D34" d="M29.787 8.532H2.21l2.523-6.295A3.574 3.574 0 0 1 6.031.62 3.542 3.542 0 0 1 8 0h15.995a3.464 3.464 0 0 1 1.98.606c.584.4 1.033.968 1.288 1.63l2.523 6.296Z"/><path id="Vector_2" fill="#9B3A21" d="M3.046 25.854H1.467a1.45 1.45 0 0 1-1.04-.43A1.465 1.465 0 0 1 0 24.379V13.944a1.484 1.484 0 0 1 .426-1.05 1.466 1.466 0 0 1 1.041-.437h1.634c.392 0 .768.157 1.045.436.278.279.433.657.433 1.051v10.49c-.025.39-.199.754-.484 1.018a1.506 1.506 0 0 1-1.05.402Z"/><path id="Vector_3" fill="#9B3A21" d="M30.523 25.854H28.9a1.46 1.46 0 0 1-1.044-.428 1.476 1.476 0 0 1-.434-1.048V13.944c0-.394.156-.772.433-1.051a1.474 1.474 0 0 1 1.045-.436h1.623a1.458 1.458 0 0 1 1.049.432 1.477 1.477 0 0 1 .43 1.055v10.49a1.438 1.438 0 0 1-.44 1.025 1.42 1.42 0 0 1-1.04.395Z"/><path id="Vector_4" fill="#D7EBFF" d="m4.645 8.253 1.9-5.167c.17-.408.455-.756.821-1.001a2.213 2.213 0 0 1 1.235-.374h14.805c.44-.001.87.13 1.236.374.366.245.652.593.82 1.001l1.835 5.223-22.652-.056Z"/><path id="Vector_5" fill="#F75D34" d="M27.731 22.255H4.256A4.21 4.21 0 0 1 1.3 21.006a4.262 4.262 0 0 1-1.233-2.979v-5.781a4.274 4.274 0 0 1 1.24-2.99A4.222 4.222 0 0 1 4.28 8.008h23.508a4.21 4.21 0 0 1 2.975 1.244A4.262 4.262 0 0 1 32 12.246v5.781a4.307 4.307 0 0 1-1.273 2.994 4.255 4.255 0 0 1-2.995 1.233Z"/><path id="Vector_6" fill="#F75D34" d="M31.944 12.034v2.012A198.852 198.852 0 0 1 0 14.125v-2.091c0-1.068.422-2.092 1.172-2.847a3.99 3.99 0 0 1 2.83-1.18h23.94a3.99 3.99 0 0 1 2.83 1.18 4.038 4.038 0 0 1 1.172 2.847Z"/><path id="Vector_7" fill="#fff" d="M3.68 13.518c.46.002.91-.133 1.294-.39.384-.255.683-.62.86-1.047a2.35 2.35 0 0 0-.501-2.553 2.319 2.319 0 0 0-2.537-.504c-.425.178-.788.48-1.042.865a2.348 2.348 0 0 0 .294 2.945c.433.435 1.019.681 1.631.684Z"/><path id="Vector_8" fill="#fff" d="M28.323 13.518c.46 0 .91-.137 1.292-.395.382-.257.68-.623.855-1.05a2.35 2.35 0 0 0-.508-2.549 2.319 2.319 0 0 0-2.536-.5A2.348 2.348 0 0 0 26 11.192a2.338 2.338 0 0 0 .681 1.65 2.312 2.312 0 0 0 1.642.677Z"/><path id="Vector_9" fill="#9B3A21" d="M24.52 18.439H7.526a2.105 2.105 0 0 1-1.478-.607 2.13 2.13 0 0 1-.634-1.473 3.791 3.791 0 0 1 1.104-2.654 3.745 3.745 0 0 1 2.642-1.103h13.682c.99.002 1.938.4 2.638 1.103a3.78 3.78 0 0 1 1.097 2.654 2.12 2.12 0 0 1-.611 1.457 2.095 2.095 0 0 1-1.446.623Z"/></g></g><g id="Group"><g id="Group_2"><path id="Vector_10" fill="#FFCD29" d="M11.822 25.042c-3.549-3.58-3.549-9.403 0-12.983a9.059 9.059 0 0 1 12.873 0c3.011 3.037 3.467 7.553 1.37 11.08 0 0-.151.254.052.46l4.645 4.683c.924.932 1.144 2.236.324 3.062l-.14.143c-.82.826-2.113.605-3.038-.328l-4.634-4.673c-.213-.215-.466-.063-.466-.063-3.497 2.115-7.975 1.655-10.986-1.381Zm11.193-1.695c2.622-2.645 2.622-6.948 0-9.593a6.693 6.693 0 0 0-9.512 0c-2.623 2.645-2.623 6.948 0 9.593a6.694 6.694 0 0 0 9.512 0Z"/></g></g></g></g></g></svg>