<svg xmlns="http://www.w3.org/2000/svg" width="410" height="410" fill="none" viewBox="0 0 410 410"><g clip-path="url(#clip0_4504_6683)"><rect width="410" height="409" y=".5" fill="url(#paint0_linear_4504_6683)" rx="40"/><path fill="#32BEA6" d="M116.059 218.354c-3.282 2.473-5.126 2.293-6.205 1.147-1.102-1.147-1.012-2.811 2.271-5.306 5.958-4.542 10.791-4.654 10.791-4.654s-.809 4.204-6.857 8.813ZM131.304 306.935l-.81.045c0-.09-1.146-11.332-8.453-26.89-6.723-14.367-20.235-35.456-46.316-54.409l.495-.562c26.238 19.043 39.818 40.267 46.585 54.701 7.329 15.671 8.476 27.002 8.499 27.115Z"/><path fill="#32BEA6" d="m103.131 249.987-.765-.27c11.422-24.372-3.17-49.463-3.327-49.71l.72-.337c.157.247 14.928 25.63 3.372 50.317ZM88.833 240.272c-8.116 1.282-14.951-1.394-15.041-1.439l.337-.652c.09.023 8.858 3.44 18.166.54l.27.674c-1.259.405-2.518.675-3.732.877ZM74.398 221.794c4.902 2.743 5.621 4.586 4.744 5.868-.9 1.281-3.08 1.484-7.981-1.259-8.904-5.014-11.58-9.735-11.58-9.735s5.78.045 14.817 5.126Z"/><path fill="#32BEA6" d="M75.5 236.183c5.576 1.304 6.902 2.877 6.475 4.339-.427 1.461-2.428 2.248-8.026.944-10.185-2.361-14.345-6.138-14.345-6.138s5.554-1.529 15.896.855ZM94.79 227.573c1.687 3.529.922 5.081-.607 5.665-1.55.585-3.305.023-4.99-3.507-3.058-6.43-1.732-10.612-1.732-10.612s4.25 1.933 7.33 8.454ZM100.884 196.501c2.293 4.744 1.731 6.655.18 7.239-1.53.607-3.463-.315-5.756-5.059-4.182-8.656-3.395-13.939-3.395-13.939s4.744 2.968 8.971 11.759Z"/><path fill="#fff" d="M158.036 23.625c0 32.6-26.418 59.018-59.018 59.018S40 56.226 40 23.625C40 14.25 42.18 5.37 46.093-2.5h105.85c3.912 7.87 6.093 16.75 6.093 26.125ZM335 8.785c0 10.338-8.505 18.715-19 18.715s-19-8.377-19-18.715c0-2.973.702-5.79 1.962-8.285h34.076A18.33 18.33 0 0 1 335 8.785Z" opacity=".5"/><path fill="#1E8573" d="M172.402 360.78S70.644 255.784 38.088 286.136c-32.555 30.353 86.56 54.32 115.046 85.886l19.268-11.242Z"/><path fill="#1C7667" d="M150.706 355.005S113.609 243.354 79.57 255.81c-34.04 12.433 43.685 68.618 53.33 101.511l17.806-2.316Z"/><path fill="#fff" d="M140.746 356.397c-6.25-22.865-20.527-44.921-31.409-59.4-11.78-15.715-22.235-26.125-22.348-26.238l.652-.697c.09.09 10.59 10.568 22.416 26.306 10.927 14.546 25.271 36.714 31.566 59.715l-.877.314Z"/><path fill="#32BEA6" d="M169.075 409.907h-59.198c-8.363-8.521-8.116-6.903-29.722-3.013-16.503 2.968-18.481-11.579-25.496-22.101l-.405-.584c-2.72-3.89-6.205-7.15-11.489-8.656-5.598-1.597-11.331-4.047-16.345-7.105-.42-.255-.832-.51-1.236-.764-9.96-6.408-16.66-15.244-13.086-24.394v-.023c.09-.202.18-.427.27-.652.675-1.506 1.641-3.035 2.923-4.564 13.288-15.851 26.845-10.252 42.448-7.847 3.418.54 7.42-.876 11.759-3.102 6.587-3.395 13.94-8.656 21.246-11.826.18-.075.352-.15.517-.225 3.508-1.462 6.97-2.428 10.32-2.451 5.868-.045 11.376 2.788 16.03 10.837l.45.764c6.992 11.894 12.478 16.863 18.234 19.066h.022c.375.15.757.285 1.147.405 3.035.967 6.205 1.236 9.713 1.439.884.045 1.791.09 2.72.135 2.181.089 4.519.224 7.037.472a88.59 88.59 0 0 1 3.553.449 82.65 82.65 0 0 1 4.968.922l.18.045c3.395.765 6.52 1.596 8.904 3.08h.022c.045.03.082.06.112.09.315.195.615.397.9.607.195.15.382.308.562.472a42.87 42.87 0 0 1 4.407 4.52 46.536 46.536 0 0 1 1.573 2.068c12.411 17.357 3.215 38.221-13.04 51.936Z"/><path fill="#fff" d="m162.329 388.908.832-1.079c-.472-.36-48.046-36.198-150.996-45.214l-.112 1.327c102.567 8.993 149.827 44.606 150.276 44.966ZM100.726 344.953c14.39-11.354 17.425-20.932 17.537-21.336l-1.281-.383c-.023.09-3.058 9.601-17.088 20.685l.832 1.034Z"/><path fill="#fff" d="M97.443 359.252c4.272-6.497 4.519-16.232.764-28.148-2.81-8.926-6.925-16.031-6.97-16.098l-1.169.674c.158.27 16.053 27.902 6.273 42.831l1.102.741ZM70.464 355.182c1.708-1.259 2.63-2.091 2.675-2.114l-.9-1.011c-.18.18-19.83 17.514-46.989 14.951l-.135 1.349c21.899 2.068 38.986-8.521 45.349-13.175Z"/><path fill="#fff" d="M55.108 385.265c6.655-6.542 8.881-13.355 9.556-17.919.742-4.969-.068-8.363-.113-8.498l-1.304.337c.045.112 3.103 13.152-9.083 25.113l.944.967Z"/><path fill="#1C7667" d="M244.955 354.958s40.717-134.898 78.151-122.465c37.457 12.411-47.979 84.334-58.546 123.972l-19.605-1.507Z"/><path fill="#1E8573" d="M259.815 336.162s93.103-115.45 131.683-88.088c38.581 27.362-84.019 63.02-109.784 97.531l-21.899-9.443Z"/><path fill="#fff" d="M272.023 341.536c17.335-24.125 44.652-44.314 64.504-56.972 21.516-13.737 39.166-21.876 39.345-21.944l-.539-1.079c-.18.09-17.897 8.251-39.48 22.033-19.943 12.726-47.395 33.006-64.841 57.287l1.011.675Z"/><path fill="#32BEA6" d="M368.297 373.937c-18.774 2.451-17.672 29.813-38.401 23.158-17.515-5.621-18.886-7.33-25.429-2.833-2.248 1.529-4.204 3.417-5.913 5.508-2.046 2.496-5.89 6.138-11.376 6.633-33.477 3.08-75.273-47.799-38.851-71.249 2.631-1.686 6.295-2.136 10.365-2.451 22.011-1.619 28.104 8.611 47.079-14.951 18.976-23.54 39.683 13.917 54.387 13.782 14.704-.135 27.879-3.395 38.176 12.478 10.297 15.896-11.264 27.497-30.037 29.925Z"/><g fill="#fff" opacity=".5"><path d="m256.355 370.428-.629-1.034c.494-.27 48.833-26.148 144.925-20.909l-.067 1.192c-95.733-5.194-143.757 20.504-144.229 20.751ZM318.655 339.156c-11.848-12.006-13.445-20.932-13.512-21.314l1.236-.18c.023.09 1.619 8.949 13.175 20.662l-.899.832Z"/><path d="M319.892 352.331c-3.103-6.34-2.136-15.064 2.81-25.226 3.71-7.599 8.409-13.422 8.454-13.49l.989.765c-.18.224-18.279 22.865-11.129 37.434l-1.124.517ZM345.298 352.172c-1.416-1.327-2.181-2.181-2.203-2.226l.944-.764c.157.18 16.12 18.188 41.504 19.402l-.068 1.215c-20.437-.99-34.893-12.636-40.177-17.627Z"/><path d="M355.707 381.02c-5.329-6.678-6.521-13.063-6.588-17.222-.067-4.542 1.124-7.442 1.169-7.577l1.169.472c-.045.112-4.519 11.354 5.239 23.607l-.989.72Z"/></g><path fill="#32BEA6" d="M347.478 230.357c3.215-4.609 5.688-4.991 7.576-3.732 1.866 1.236 2.429 3.597-.787 8.206-5.868 8.409-12.095 10.207-12.095 10.207s-.652-6.16 5.306-14.681ZM375.087 314.67c6.116-.158 8.004 1.686 8.094 4.024.09 2.316-1.686 4.249-7.801 4.407-11.174.269-16.705-3.822-16.705-3.822s5.081-4.34 16.412-4.609ZM358.45 303.068c3.867-4.114 6.385-4.137 8.071-2.653 1.664 1.484 1.866 3.912-2.001 8.026-7.059 7.487-13.49 8.409-13.49 8.409s.27-6.183 7.42-13.782Z"/><path fill="#F75D34" d="M104.031 158.7s-5.464-6.452-4.047-12.77c1.394-6.318 10.477-17.919 4.924-22.978-5.554-5.081-13.962-1.731-15.603 2.991-1.642 4.698 1.843 7.037-.135 8.566-1.957 1.528-14.277 8.611-16.93 1.146-2.676-7.464.382-21.359 10.972-27.227 10.59-5.868 24.978-13.107 35.073-1.169 10.073 11.916 7.509 19.965 1.686 27.384-5.823 7.42 1.799 13.535-.404 16.031-2.181 2.518-14.007 10.207-15.536 8.026ZM108.325 173.698c-2.068-6.025-.472-11.264 4.722-13.939 5.216-2.676 10.881-2.316 15.513 3.462 3.53 4.407-.944 12.051-6.138 14.727-5.216 2.675-12.276 1.101-14.097-4.25Z"/><path fill="#30262A" fill-rule="evenodd" d="M117.88 136.533c-3.597 4.587-2.001 8.701-.831 11.714.697 1.776 1.236 3.215.539 4.182a.89.89 0 0 1-.112.135c-1.844 2.113-11.197 8.431-14.614 8.431h-.135c-.435-.03-.742-.173-.922-.427-.135-.158-5.44-6.566-4.047-12.816.427-1.956 1.596-4.429 2.855-7.037 2.743-5.823 5.891-12.411 2.091-15.873-2.428-2.226-5.755-3.035-9.083-2.181a10.74 10.74 0 0 0-3.282 1.417c-1.507.989-2.63 2.293-3.125 3.709-.855 2.473-.293 4.25.135 5.688.247.765.45 1.439.337 2.024-.068.337-.248.652-.607.922-.855.652-3.17 2.046-5.711 3.08-2.316.944-5.598 1.911-8.116 1.169-1.574-.45-2.653-1.506-3.238-3.148-2.496-6.947-.067-19.695 9.15-26.147.6-.42 1.222-.81 1.867-1.17 5.35-2.967 11.578-6.227 17.739-7.262 7.217-1.236 12.905.765 17.424 6.093 4.699 5.576 6.925 10.635 6.813 15.446-.09 3.935-1.687 7.644-5.127 12.051Zm-.134-.09c3.439-4.384 5.013-8.071 5.103-11.961.113-4.766-2.091-9.78-6.79-15.333-9.645-11.422-23.09-5.374-34.96 1.191-.99.54-1.912 1.169-2.766 1.844-8.409 6.588-10.567 18.616-8.184 25.293.562 1.574 1.619 2.608 3.148 3.058 2.473.72 5.733-.247 8.004-1.191 2.765-1.102 5.013-2.541 5.688-3.058.247-.203.427-.427.494-.675.203-.562-.022-1.236-.27-2.091-.427-1.371-1.011-3.26-.134-5.778.54-1.596 1.866-3.035 3.597-4.047a11.212 11.212 0 0 1 2.923-1.191 10.506 10.506 0 0 1 2.608-.338c2.45 0 4.766.877 6.61 2.564 3.867 3.529.719 10.184-2.069 16.052-1.236 2.586-2.405 5.059-2.855 6.993-1.371 6.227 3.98 12.635 4.047 12.703.15.224.42.344.809.359 1.372.068 4.182-1.124 7.757-3.282 2.541-1.552 5.014-3.328 6.295-4.519.015 0 .023-.008.023-.023.21-.195.389-.375.539-.539.81-.922.248-2.361-.472-4.182-1.169-3.035-2.788-7.195.855-11.849ZM127.549 170.594c-.45 2.158-1.754 4.451-3.463 6.295v.023c-1.124 1.214-2.428 2.248-3.777 2.945-1.664.854-3.552 1.281-5.418 1.281-1.417 0-2.811-.247-4.07-.764-2.315-.922-4.002-2.631-4.721-4.811-2.001-5.824-.517-10.815 3.934-13.558.27-.165.548-.322.832-.472 5.846-3.013 11.399-1.776 15.604 3.463 1.169 1.483 1.551 3.417 1.079 5.598Zm-1.214-5.486c-2.653-3.328-5.868-5.036-9.353-5.036-1.956 0-3.98.539-6.048 1.596-.45.24-.877.495-1.282.764-1.821 1.259-3.102 2.923-3.777 4.902-.764 2.383-.652 5.216.36 8.184.719 2.135 2.383 3.799 4.631 4.699 2.901 1.169 6.475.966 9.376-.518 1.124-.562 2.203-1.371 3.17-2.338 1.978-1.933 3.485-4.429 3.979-6.812.473-2.136.09-4.025-1.056-5.441Z" clip-rule="evenodd"/><path fill="#30262A" d="M369.669 155.872c-.113-.023-.225.045-.248.135a28.305 28.305 0 0 1-.607 1.978c-.045.113 0 .225.113.27h.067c.09 0 .18-.045.203-.135.224-.652.449-1.326.607-2.001a.18.18 0 0 0-.135-.247Zm.652-4.092a.19.19 0 0 0-.225.18 21.334 21.334 0 0 1-.247 2.046.206.206 0 0 0 .157.247h.045c.09 0 .18-.09.202-.18a21.9 21.9 0 0 0 .248-2.091c.022-.112-.068-.202-.18-.202Zm.112-3.98c0-.112-.112-.179-.225-.179-.112.022-.202.112-.18.224.068.697.113 1.372.113 2.069.022.112.112.202.225.202.112 0 .202-.112.202-.225-.022-.674-.045-1.394-.135-2.091Zm-.315-2.068a16.206 16.206 0 0 0-.472-2.023.18.18 0 0 0-.247-.135.207.207 0 0 0-.158.247c.203.652.36 1.326.473 2.001.022.09.112.157.202.157h.045c.112-.022.202-.135.157-.247Zm-1.101-4.024a34.464 34.464 0 0 0-.765-1.934c-.045-.112-.18-.157-.292-.112-.09.045-.135.157-.09.269.27.63.54 1.282.764 1.911.023.09.113.158.18.158a.2.2 0 0 0 .09-.023c.09-.045.158-.157.113-.269Zm-1.687-3.823a37.338 37.338 0 0 0-1.011-1.843c-.045-.09-.18-.113-.293-.068a.248.248 0 0 0-.067.293c.36.584.697 1.214 1.012 1.798.045.068.112.113.18.113.03 0 .06-.008.089-.023.113-.045.158-.18.09-.27Zm-1.461-.517c-.674.015-1.364 0-2.068-.045-.113 0-.225.09-.225.203 0 .112.09.202.202.225a40.9 40.9 0 0 0 1.641.044h.45c.112 0 .202-.089.202-.224 0-.113-.112-.203-.202-.203Zm4.317-.337a.18.18 0 0 0-.248-.135c-.629.135-1.326.27-2.023.337-.112.023-.202.135-.18.248 0 .09.09.18.202.18h.023a18.96 18.96 0 0 0 2.068-.36.245.245 0 0 0 .158-.27Zm-8.454.112a72.183 72.183 0 0 1-2.023-.314c-.135-.023-.225.045-.248.157a.207.207 0 0 0 .158.247c.697.135 1.394.225 2.068.315h.023c.112 0 .202-.067.202-.18a.19.19 0 0 0-.18-.225Zm-4.047-.764a51.27 51.27 0 0 1-2.001-.517c-.112-.045-.225.022-.27.135a.245.245 0 0 0 .158.27c.652.179 1.326.359 2.001.517.015.015.03.022.045.022.112 0 .18-.067.202-.157.045-.113-.022-.225-.135-.27Zm16.211-1.124a.214.214 0 0 0-.293-.045 7.873 7.873 0 0 1-1.731 1.034c-.112.045-.157.158-.112.27.022.067.112.135.179.135a.2.2 0 0 0 .09-.023c.675-.314 1.304-.674 1.822-1.079.112-.067.112-.202.045-.292Zm-20.19-.023a48.563 48.563 0 0 1-1.934-.719c-.112-.045-.225 0-.27.112-.045.113 0 .225.113.27.652.247 1.304.495 1.956.72.03.015.052.022.067.022.09 0 .158-.067.203-.135.022-.112-.023-.225-.135-.27Zm11.489-.944a39.965 39.965 0 0 0-1.215-1.709c-.067-.09-.179-.112-.292-.045a.212.212 0 0 0-.022.293c.404.562.809 1.124 1.191 1.686.045.067.113.09.18.09.03 0 .068-.008.113-.023a.213.213 0 0 0 .045-.292Zm10.881-2.473a.18.18 0 0 0-.247.135 5.895 5.895 0 0 1-.854 1.821.244.244 0 0 0 .067.292c.03.015.068.023.113.023a.205.205 0 0 0 .179-.09 6.546 6.546 0 0 0 .877-1.934.18.18 0 0 0-.135-.247Zm-26.215 1.866a23.496 23.496 0 0 1-1.844-.899c-.112-.045-.247-.023-.292.09-.045.09 0 .225.09.269.607.338 1.237.63 1.866.922a.2.2 0 0 0 .09.023c.09 0 .158-.045.203-.113.044-.112 0-.224-.113-.292Zm-3.665-1.911a28.913 28.913 0 0 1-1.731-1.124c-.09-.068-.225-.023-.292.067-.068.09-.045.225.067.293.562.382 1.147.764 1.754 1.124.03.015.067.022.112.022a.203.203 0 0 0 .18-.09c.045-.112.023-.225-.09-.292Zm16.503-.832c-.45-.517-.899-1.057-1.372-1.574a.21.21 0 0 0-.292 0c-.09.068-.09.203-.022.293a82.89 82.89 0 0 1 1.371 1.551.19.19 0 0 0 .158.09c.045 0 .089-.023.134-.068.09-.067.09-.202.023-.292Zm13.715-3.08c0-.112-.113-.18-.225-.18a.19.19 0 0 0-.18.225c.045.629.067 1.281.067 1.933v.113c0 .112.113.225.225.225.113 0 .203-.09.203-.203v-.157c0-.63-.045-1.304-.09-1.956Zm-33.59 1.574c-.562-.45-1.079-.9-1.551-1.372-.09-.067-.225-.067-.293.023-.09.067-.09.202 0 .292.495.45 1.012.922 1.574 1.372a.24.24 0 0 0 .135.044.241.241 0 0 0 .157-.067c.068-.09.045-.225-.022-.292Zm17.065-1.574c-.495-.495-.99-.967-1.507-1.439-.09-.09-.225-.09-.292 0-.068.09-.068.225 0 .292.51.48 1.012.96 1.506 1.439.045.045.09.068.135.068a.205.205 0 0 0 .158-.068c.089-.067.089-.202 0-.292Zm-20.033-1.282a16.397 16.397 0 0 1-1.214-1.663c-.045-.09-.18-.113-.27-.068-.112.068-.135.203-.067.293.36.562.764 1.146 1.236 1.708.045.045.09.068.158.068.045 0 .09-.015.135-.045.09-.09.09-.203.022-.293Zm35.906-2.832a.208.208 0 0 0-.248-.158.207.207 0 0 0-.157.247c.157.675.292 1.349.405 2.024.022.09.112.18.202.18h.045c.09-.023.18-.135.157-.247a32.704 32.704 0 0 0-.404-2.046Zm-18.931 1.281c-.54-.45-1.079-.877-1.641-1.304-.09-.09-.203-.067-.293.023a.213.213 0 0 0 .045.292c.54.427 1.079.854 1.619 1.304.03.03.067.045.112.045a.255.255 0 0 0 .18-.068c.068-.09.045-.224-.022-.292Zm-19.111-1.911a10.76 10.76 0 0 1-.584-1.956c0-.112-.113-.18-.225-.157-.113.022-.202.112-.18.224.135.675.315 1.372.607 2.046.023.068.09.113.18.113.03.015.06.015.09 0 .09-.045.157-.18.112-.27Zm15.806-.652c-.562-.405-1.147-.787-1.731-1.169-.09-.068-.225-.045-.293.067-.067.09-.022.225.068.293.562.359 1.146.742 1.709 1.146.044.03.089.045.134.045a.194.194 0 0 0 .158-.09.213.213 0 0 0-.045-.292Zm21.696-.742a22.733 22.733 0 0 0-.652-1.978c-.045-.113-.18-.158-.27-.135-.112.045-.18.18-.135.269.248.652.472 1.304.675 1.957a.216.216 0 0 0 .202.157c.015 0 .03-.008.045-.023a.18.18 0 0 0 .135-.247Zm-25.204-1.506a51.062 51.062 0 0 0-1.843-1.012.245.245 0 0 0-.292.09.245.245 0 0 0 .09.292c.607.292 1.214.63 1.821.989a.37.37 0 0 0 .112.023c.068 0 .135-.045.18-.112.067-.09.022-.225-.068-.27Zm-11.668-2.788c-.045-.09-.18-.135-.27-.068a2.674 2.674 0 0 0-1.327 1.732.208.208 0 0 0 .158.247h.045c.09 0 .18-.045.202-.135.18-.675.54-1.169 1.124-1.484.09-.067.135-.18.068-.292Zm7.914.899a19.444 19.444 0 0 0-1.956-.742c-.113-.045-.225.023-.27.135a.257.257 0 0 0 .135.27c.629.202 1.281.427 1.933.719a.2.2 0 0 0 .09.023c.068 0 .158-.045.18-.135.045-.112 0-.225-.112-.27Zm27.497-.517a23.95 23.95 0 0 0-.9-1.889c-.045-.112-.157-.157-.27-.089-.089.044-.134.179-.089.269.314.63.607 1.259.899 1.866.022.09.09.135.18.135.03 0 .06-.007.09-.022a.216.216 0 0 0 .09-.27Zm-31.477-.764c-.779-.15-1.484-.218-2.113-.203-.112 0-.202.113-.202.225a.2.2 0 0 0 .202.202c.607-.022 1.281.045 2.023.18h.045c.09 0 .18-.067.203-.157a.207.207 0 0 0-.158-.247Zm29.588-2.968a36.935 36.935 0 0 0-1.079-1.776c-.068-.113-.18-.135-.292-.068-.09.068-.113.18-.068.293a36.86 36.86 0 0 1 1.079 1.753c.045.068.113.113.18.113a.252.252 0 0 0 .113-.023c.09-.067.134-.18.067-.292Zm-2.248-3.508c-.405-.562-.81-1.146-1.237-1.686a.213.213 0 0 0-.292-.045.214.214 0 0 0-.045.293c.435.554.847 1.109 1.236 1.663.045.068.113.09.18.09a.22.22 0 0 0 .113-.045c.09-.045.112-.18.045-.27Zm-2.541-3.327a98.622 98.622 0 0 0-1.371-1.551.242.242 0 0 0-.315-.023c-.068.09-.09.203 0 .292.45.518.922 1.035 1.371 1.552.045.06.098.09.158.09.045 0 .09-.015.135-.045.067-.09.09-.225.022-.315Zm-2.833-3.08c-.922-.922-1.506-1.417-1.529-1.439a.21.21 0 0 0-.292.022c-.067.09-.067.225.023.293.022 0 .607.517 1.506 1.416.045.045.09.068.157.068.045 0 .113-.023.135-.068.09-.067.09-.202 0-.292ZM245.202 121.45h-.022c-.69.015-1.379.015-2.068 0-.113-.023-.203.09-.203.202 0 .112.09.202.203.202.404.023.809.023 1.191.023.3 0 .6-.008.899-.023.113 0 .203-.09.203-.202 0-.112-.113-.202-.203-.202Zm4.092-.315c-.652.09-1.349.157-2.046.202-.112.023-.202.113-.179.225a.2.2 0 0 0 .202.202h.022a31.315 31.315 0 0 0 2.069-.224.22.22 0 0 0 .18-.225c-.023-.113-.113-.203-.248-.18Zm-8.228.202a32.172 32.172 0 0 1-2.069-.202.19.19 0 0 0-.225.18c-.022.112.068.225.18.225.697.089 1.394.157 2.069.202h.022c.113 0 .202-.068.202-.18 0-.112-.067-.225-.179-.225Zm-4.115-.494c-.674-.113-1.371-.225-2.046-.36a.206.206 0 0 0-.247.157.207.207 0 0 0 .157.248c.697.134 1.394.269 2.069.359a.538.538 0 0 1 .022.023c.113 0 .203-.09.203-.18a.207.207 0 0 0-.158-.247Zm16.638-.405c-.023-.113-.135-.158-.248-.135-.652.18-1.326.337-2.001.472a.207.207 0 0 0-.157.247c.022.113.09.18.202.18.015 0 .03-.007.045-.022a29.364 29.364 0 0 0 2.024-.472c.112-.045.18-.158.135-.27Zm-20.707-.405a50.812 50.812 0 0 1-2.001-.517c-.113-.022-.225.023-.248.135-.045.112.023.225.135.27.675.18 1.349.359 2.024.517h.045c.09 0 .18-.045.202-.158a.207.207 0 0 0-.157-.247Zm24.596-1.034c-.045-.112-.157-.157-.27-.112-.607.292-1.259.562-1.911.786-.112.045-.157.158-.112.27.022.09.112.135.18.135.03 0 .06-.007.09-.022a20.542 20.542 0 0 0 1.933-.787c.09-.045.158-.18.09-.27Zm-28.576-.09a26.833 26.833 0 0 1-1.956-.674c-.112-.045-.225 0-.27.112-.045.112 0 .225.113.27 0 0 .742.292 1.978.697.015.015.038.022.068.022.09 0 .157-.067.202-.157.023-.113-.022-.225-.135-.27Zm31.994-2.248c-.068-.09-.203-.09-.293 0a14.56 14.56 0 0 1-1.596 1.259c-.112.045-.135.18-.067.27.045.067.112.112.179.112a.883.883 0 0 1 .113-.045 13.376 13.376 0 0 0 1.664-1.304.21.21 0 0 0 0-.292Zm2.45-3.328c-.112-.067-.225-.022-.292.09a12.285 12.285 0 0 1-1.079 1.709c-.068.09-.068.225.045.292.03.03.067.045.112.045.068 0 .135-.022.158-.09a11.94 11.94 0 0 0 1.146-1.776.216.216 0 0 0-.09-.27Zm1.304-3.934a.206.206 0 0 0-.247.157 13.444 13.444 0 0 1-.54 1.979c-.022.112.023.224.135.269h.068c.09 0 .18-.045.202-.135.225-.652.405-1.326.54-2.023a.207.207 0 0 0-.158-.247Zm.517-3.935c-.022-.112-.112-.202-.224-.202-.113 0-.203.09-.203.225v.539c0 .495 0 1.012-.045 1.507-.022.112.068.202.18.224h.023c.112 0 .202-.09.202-.202a17.01 17.01 0 0 0 .067-1.529v-.562Zm2.451-1.933c-.697.022-1.394.022-2.068 0-.113-.023-.203.067-.203.179-.022.135.068.225.18.225a23.825 23.825 0 0 0 2.114 0c.112 0 .202-.09.179-.202 0-.135-.09-.202-.202-.202Zm4.092-.495c-.675.135-1.372.247-2.046.315-.112.022-.202.135-.18.247.023.09.113.18.203.18h.022c.697-.09 1.394-.202 2.068-.337.113-.023.203-.135.18-.248a.206.206 0 0 0-.247-.157Zm-8.206.315c-.675-.113-1.372-.225-2.024-.382a.206.206 0 0 0-.247.157.206.206 0 0 0 .157.247c.675.158 1.372.292 2.069.382h.022c.09 0 .18-.067.203-.179.022-.113-.068-.225-.18-.225Zm1.124-2.046a.208.208 0 0 0-.248-.158.208.208 0 0 0-.157.248c.157.674.27 1.349.36 2.023 0 .113.112.18.202.18h.023c.112 0 .202-.112.18-.225a21.01 21.01 0 0 0-.36-2.068Zm10.027 1.214c-.022-.09-.135-.158-.247-.135-.24.075-.472.142-.697.202a.18.18 0 0 0-.135.248c.023.09.09.157.202.157.015 0 .03-.007.045-.022.225-.06.458-.12.697-.18.113-.045.18-.158.135-.27Zm-15.153-.113a17.441 17.441 0 0 1-1.889-.786c-.112-.045-.225 0-.292.112-.045.09 0 .225.112.27.63.292 1.282.562 1.934.787.03.015.052.022.067.022.09 0 .18-.067.203-.157.045-.09-.023-.225-.135-.248Zm-3.71-1.753c-.585-.382-1.147-.765-1.664-1.192-.09-.067-.225-.067-.292.023-.068.09-.045.225.022.292.54.427 1.125.854 1.732 1.214.03.03.067.045.112.045a.169.169 0 0 0 .157-.112c.068-.09.045-.225-.067-.27Zm8.274-1.372a25.146 25.146 0 0 0-.742-1.956c-.045-.112-.18-.157-.27-.112-.112.045-.157.18-.112.27.269.63.517 1.274.742 1.933.022.09.112.135.179.135h.068c.112-.045.18-.157.135-.27Zm-11.444-1.214a13.538 13.538 0 0 1-1.259-1.596c-.068-.09-.203-.135-.292-.068a.213.213 0 0 0-.045.293 12.34 12.34 0 0 0 1.304 1.663c.045.046.097.06.157.046.045 0 .09-.016.135-.046.09-.09.09-.202 0-.292Zm9.758-2.608a20.05 20.05 0 0 0-1.147-1.776.192.192 0 0 0-.292-.023c-.09.068-.113.18-.045.27.404.54.764 1.124 1.124 1.731.045.068.112.09.18.09a.2.2 0 0 0 .09-.022c.112-.045.134-.18.09-.27Zm-11.939-.787a5.18 5.18 0 0 1-.382-1.933v-.023a.202.202 0 0 0-.203-.202h-.022a.201.201 0 0 0-.202.202v.045c0 .63.135 1.327.404 2.046.045.09.113.135.203.135h.067c.113-.045.157-.157.135-.27Zm9.398-2.585a11.204 11.204 0 0 0-1.619-1.35.245.245 0 0 0-.292.068.245.245 0 0 0 .067.292c.54.36 1.057.787 1.552 1.305.045.03.097.044.157.044s.112-.014.157-.044a.24.24 0 0 0-.022-.315Zm-7.442-2.45c-.022-.113-.157-.18-.247-.158-.787.225-1.417.607-1.844 1.169-.067.09-.067.225.045.292.03.03.068.045.112.045.068 0 .135-.022.158-.09.382-.472.922-.81 1.619-1.012a.207.207 0 0 0 .157-.247Zm3.957.134a7.797 7.797 0 0 0-2.091-.472c-.112 0-.202.09-.225.202 0 .113.09.203.203.225.652.045 1.326.18 1.956.427.03.015.052.023.067.023.09 0 .18-.068.202-.135.045-.113-.022-.225-.112-.27Z"/><path fill="#32BEA6" d="M158.306 184.738a1.304 1.304 0 1 1 2.608 0 1.304 1.304 0 0 1-2.608 0ZM171.705 181.007a1.305 1.305 0 1 1 2.606.002 1.305 1.305 0 0 1-2.606-.002ZM221.933 116.189a1.304 1.304 0 1 1 2.608 0 1.304 1.304 0 0 1-2.608 0ZM366.903 160.838c0-.719.585-1.281 1.304-1.281.72 0 1.282.562 1.282 1.281 0 .72-.562 1.304-1.282 1.304a1.305 1.305 0 0 1-1.304-1.304ZM301.814 177.972a1.306 1.306 0 0 1 2.609 0 1.306 1.306 0 0 1-2.609 0ZM122.512 102.878a1.305 1.305 0 1 1 1.304 1.304 1.306 1.306 0 0 1-1.304-1.304ZM75.905 182.964a1.305 1.305 0 0 1 2.608 0 1.305 1.305 0 0 1-2.608 0Z"/><path fill="#E47E6A" d="M215.863 160.728a.464.464 0 0 1-.337-.18c-.45-.697-.562-1.371-.337-1.956.359-.967 1.506-1.304 1.573-1.326a.39.39 0 0 1 .495.269.428.428 0 0 1-.27.495c-.022 0-.832.247-1.056.854-.12.345-.03.757.269 1.237.135.18.068.427-.112.539a.435.435 0 0 1-.225.068Z"/><path fill="#F8B68F" d="M281.851 218.824c2.113 3.642 21.403 41.976 14.771 59.783-6.61 17.806-28.599-13.962-28.599-13.962l1.732-35.524 12.096-10.297Z"/><path fill="#F75D34" stroke="#000" d="M265.252 366.134c-.853 9.724-2.021 20.952-3.616 33.662v.002c-.373 3.068-.78 6.211-1.221 9.43h-60.047l1.087-15.585.001-.009 1.865-35.987v-.004l.045-.648v-.001l.023-.337v-.016l.023-.625.517-9.888v-.005l.022-.511.045-.669v-.007l.45-8.476.022-.427.158-3.013V332.675l.016-.209 51.809-10.268h.001l11.061-2.178-1.761 46.136-.256-.022-.242-.021-.002.021Zm0 0v-.025l.003-.025c.044-.445.081-.882.111-1.311l.001-.009c.494-5.707.876-10.874 1.168-15.501v-.001c.134-2.092.254-4.08.359-5.963m-1.642 22.835 1.642-22.835m.859-8.282c.045-.884.075-1.731.09-2.54l-.09 2.54Zm0 0v.405m0-.405v.405m-.859 7.877v.015h.5m-.5-.015-1.029 21.508c.494-5.71.877-10.881 1.169-15.513.135-2.098.255-4.092.36-5.98m-.5-.015v-.013l.5.028m-.5-.015c0-.215.008-.43.023-.645m.477.66c0-.21.007-.42.022-.63m0 0-.499-.026v-.004m.499.03c.06-1.154.113-2.263.157-3.327.03-.555.053-1.095.068-1.619.015-.165.022-.323.022-.472l.09-1.844m-.337 7.262-.499-.036v.006m0 0c.06-1.151.112-2.258.157-3.319v-.005c.03-.551.052-1.086.067-1.607l.001-.015.001-.016c.014-.151.02-.293.02-.426v-.012l.001-.012.089-1.832m0 0V335.422h.5m-.5-.012.001-.013.499.025m-.5-.012V335.005l.001-.013c.045-.88.074-1.721.089-2.525v-.006c.075-2.396.128-4.462.158-6.197v-.001l.252 9.159"/><path fill="#693F18" d="M150.481 355.004c.585 4.879 28.284 4.294 62.211 0 33.904-4.294 60.299-11.646 59.715-16.547-.585-4.879-30.892-10.41-64.819-6.116-33.904 4.294-57.714 17.762-57.107 22.663Z"/><path fill="#F75D34" stroke="#000" d="m227.167 353.414-.002.006-1.214 4.002-.001.003-.291.986-.001.003-6.901 22.727-2.136 7.037v.001l-3.935 12.994v.001l-2.455 8.053h-64.504l4.661-26.476.002-.006.268-1.41.009-.046v-.07l.239-1.328.001-.002 1.596-9.127v-.001l1.865-10.427a6.757 6.757 0 0 1 .649-1.817 6.81 6.81 0 0 1 .502-.815v-.001c.861-1.197 2.075-2.094 3.49-2.51l.006-.002c.374-.115.786-.231 1.234-.347l.019-.003v-.001l.051-.011.112-.031.148-.042.235-.067a94.04 94.04 0 0 1 4.169-1.062l.007-.002c2.287-.56 5.496-1.301 9.784-2.199h.002l.445-.089.45-.09.002-.001c8.558-1.752 18.683-3.548 27.816-4.647 7.165-.854 13.685-1.276 18.325-.928 2.329.174 4.13.539 5.296 1.106.58.281.969.596 1.199.931.216.313.31.67.26 1.101l-1.11 3.685-.002.007-.29.915Z"/><path fill="#4F1A44" d="M232.544 367.817c-6.295 5.059-11.579 12.163-15.446 20.662-2.001 4.429-3.642 9.24-4.834 14.321l-1.663 7.105h-1.08l1.597-7.644a82.381 82.381 0 0 1 2.046-7.24v-.022c1.641-4.879 3.664-9.443 6.07-13.557 3.53-6.048 7.824-11.174 12.703-15.087l.607 1.462Z"/><path fill="#F75D34" d="M267.394 342.864s-15.784-2.204-39.436-.45c-36.67 2.698-67.809 11.197-67.809 11.197l11.647 1.956 72.867 2.878 16.368-10.657 6.363-4.924Z"/><path fill="#FFEED3" stroke="#000" d="m239.565 194.732.001.001c8.381 2.24 16.211 6.369 22.304 12.969 6.089 6.597 10.468 15.691 11.907 27.907.988 8.405 2.56 26.734 2.866 46.647.303 19.715-.637 40.926-4.589 55.597l-.286-.068a96.774 96.774 0 0 0-2.203-.49 151.89 151.89 0 0 0-8.269-1.487c-7.082-1.085-17.106-2.179-28.881-2.217-23.352-.075-53.625 4.002-81.498 20.569l-.018-.249c-.051-.691-.122-1.711-.202-3.029-.16-2.634-.357-6.456-.503-11.2-.292-9.49-.381-22.669.433-37.427 1.628-29.506 6.859-65.237 21.219-90.431l.02-.015a53.686 53.686 0 0 1 1.369-1.044c.96-.707 2.372-1.71 4.179-2.884a104.61 104.61 0 0 1 15.084-8.117c12.578-5.477 29.514-9.746 47.067-5.032Z"/><path fill="#FFCD29" d="M245.638 266.183c6.857 0 12.416-5.56 12.416-12.418s-5.559-12.417-12.416-12.417-12.416 5.559-12.416 12.417 5.559 12.418 12.416 12.418ZM218.417 325.335c6.858 0 12.417-5.56 12.417-12.418 0-6.857-5.559-12.417-12.417-12.417-6.857 0-12.416 5.56-12.416 12.417 0 6.858 5.559 12.418 12.416 12.418ZM266.501 321.5a5.5 5.5 0 1 0 0-11 5.5 5.5 0 1 0 0 11ZM157.501 317.5a5.5 5.5 0 1 0 0-11 5.5 5.5 0 1 0 0 11ZM181.488 277.046c6.857 0 12.416-5.56 12.416-12.418s-5.559-12.417-12.416-12.417c-6.858 0-12.417 5.559-12.417 12.417s5.559 12.418 12.417 12.418ZM210.001 240.5a3 3 0 1 0 0-6 3 3 0 0 0 0 6Z"/><path fill="#FFEED3" stroke="#000" d="M282.477 218.471c-.085.113-.196.258-.333.432-.358.453-.89 1.102-1.586 1.88a47.72 47.72 0 0 1-6.028 5.661c-5.197 4.084-12.574 8.028-21.389 7.619-8.963-.414-26.045-2.759-40.913-5.005a1742.023 1742.023 0 0 1-25.264-4.017c-.707-.117-1.257-.21-1.631-.273l-.425-.071-.109-.019-.019-.003-41.332-10.057c.131-.148.287-.321.47-.517a40.03 40.03 0 0 1 3.133-2.978c2.856-2.457 7.301-5.712 13.635-8.876 12.663-6.328 32.896-12.304 63.111-10.802 5.285.267 10.54 1.689 15.752 3.284h.001a91.034 91.034 0 0 1 8.831 3.22c14.948 6.385 23.538 11.616 28.382 15.237 2.421 1.809 3.904 3.215 4.776 4.159a12.565 12.565 0 0 1 .938 1.126Z"/><ellipse cx="210.5" cy="229.5" fill="#FFEED3" rx="34.5" ry="17"/><path fill="#FFCD29" d="M212.5 237.5a5.5 5.5 0 1 0 0-11 5.5 5.5 0 1 0 0 11ZM191.5 209.5a2.5 2.5 0 1 0 0-5 2.5 2.5 0 0 0 0 5Z"/><path fill="#693F18" d="M142.545 214.912c-.877 2.878 7.891 8.432 19.628 12.434 11.736 4.002 21.988 4.901 22.887 2.046.877-2.878-7.891-8.432-19.627-12.434-11.737-4.002-21.989-4.901-22.888-2.046Z"/><path fill="#30262A" d="m240.415 177.974-.203-.337c.023-.022 3.823-2.293 4.137-5.441.158-1.641-.652-3.26-2.405-4.789-.81-.719-1.574-1.371-2.271-1.978-4.744-4.114-6.543-5.666-6.925-10.117l.382-.023c.382 4.294 2.001 5.688 6.813 9.848.697.584 1.439 1.259 2.27 1.978 1.844 1.619 2.698 3.35 2.519 5.126-.135 1.394-.922 2.833-2.294 4.137-1.012.989-2.001 1.574-2.023 1.596Z"/><path fill="#30262A" d="M232.927 155.309s.562 6.902 6.902 12.343c6.363 5.463 3.777 13.714-2.833 12.883-6.587-.81-3.912 10.477-15.67 5.103-8.049-3.665 11.601-30.329 11.601-30.329Z"/><path fill="#F8B68F" d="m213.053 186.763 1.146-10.432.337-3.035 1.979-17.919 3.822 16.772 2.316 10.05 1.821 7.015c.54 2.338 4.901 6.812.809 8.049-6.16 1.911-14.906-.922-17.244-6.363 0 0 4.631-.764 5.014-4.137Z"/><path fill="#E47E6A" d="m214.108 176.061.09.27c2.001 5.171 8.431 5.913 8.431 5.913l.023-.045-2.316-10.05c-1.911-.112-4.586-.022-5.8 1.147-.652.585-.9 1.484-.428 2.765Z"/><path fill="#F8B68F" d="M233.468 153.061c-3.216-10.5-12.726-16.908-21.224-14.3-8.522 2.608-12.816 13.22-9.601 23.72 3.215 10.5 12.726 16.907 21.224 14.299 8.521-2.608 12.816-13.22 9.601-23.719Z"/><path fill="#F8B68F" d="M205.588 164.73c2.248 1.124 4.744.54 5.553-1.304.832-1.843-.337-4.249-2.585-5.373-2.271-1.147-4.767-.562-5.576 1.281-.81 1.844.337 4.25 2.608 5.396Z"/><path fill="#080435" d="M219.595 157.488c.09-.045.157-.158.18-.27a.377.377 0 0 0-.338-.405c-.112 0-2.855-.494-4.226 2.406a.37.37 0 0 0 .157.495c.18.089.36 0 .495-.158 1.281-1.574 3.417-2.023 3.507-2.001.09 0 .165-.022.225-.067ZM217.998 162.188c.225.855.922 1.394 1.529 1.237.607-.158.922-.989.697-1.821-.225-.855-.922-1.394-1.529-1.237-.607.157-.921.989-.697 1.821ZM232.679 155.488a.4.4 0 0 0 .248-.18.37.37 0 0 0-.158-.494c-.09-.068-2.428-1.552-4.811.607a.36.36 0 0 0-.045.517c.135.157.337.135.517.022 1.776-.966 3.912-.539 4.002-.494.075.03.157.037.247.022ZM229.398 159.245c-.113.854.315 1.618.944 1.708.63.068 1.237-.562 1.349-1.439.113-.854-.315-1.618-.944-1.708-.63-.068-1.237.562-1.349 1.439Z"/><path fill="#30262A" d="M219.842 140.201s1.686 6.7-6.228 10.342c-7.891 3.643-12.501 8.881-9.578 14.457 2.923 5.598 22.079 17.874 13.782 25.631-8.296 7.756-11.061-5.801-20.999-.495-9.96 5.306-20.1-4.025-11.421-18.683 5.868-9.848-5.036-32.174 22.82-38.604 39.188-9.061 26.463 18.121 26.463 18.121s-12.636-3.484-14.839-10.769Z"/><path fill="#fff" d="m216.447 191.912-.157-.18c1.528-1.237 2.27-2.698 2.248-4.317-.157-5.755-10.072-13.017-17.312-18.301a200.497 200.497 0 0 1-3.845-2.855c-4.002-3.058-5.665-7.622-4.361-11.961 1.439-4.812 5.98-8.049 11.848-8.454 10.86-.742 13.243-8.161 13.265-8.229l.225.068c-.022.067-2.451 7.644-13.467 8.408-5.778.383-10.253 3.575-11.669 8.274-1.282 4.294.315 8.679 4.294 11.714 1.147.877 2.451 1.821 3.845 2.833 7.284 5.328 17.267 12.613 17.402 18.503.045 1.686-.742 3.215-2.316 4.497Z"/><path fill="#764678" fill-rule="evenodd" d="m227.442 161.986-.045-.09a6.33 6.33 0 0 0 .157.337 3.275 3.275 0 0 1-.112-.247Zm-1.619-5.868c0-.023.18 1.259.18 1.282a.739.739 0 0 1-.022-.18.501.501 0 0 1-.023-.158c-.015 0-.022-.007-.022-.022l-.045-.382v-.023a.74.74 0 0 1-.023-.18v-.022a.739.739 0 0 1-.022-.18v-.023a.37.37 0 0 0-.023-.112v-.157.157Zm.832 1.439h-.045l-.045-.023-.09-.022-.045-.023c-.112-.022-.27-.067-.427-.089v.022l.09.495c0 .015.008.03.023.045 0 .075.015.149.044.224v.045c.015.06.03.128.045.203.015.03.023.067.023.112.015.03.022.06.022.09v.023l.09.359c.12.435.255.855.405 1.259.03.105.068.21.112.315l.18.495c.045.12.098.24.158.359.045.12.097.233.157.338.06.15.128.299.202.449.075.135.15.278.225.428.068-.09.113-.18.18-.27a16.65 16.65 0 0 1-1.304-4.834Z" clip-rule="evenodd"/><path fill="#fff" d="M206.869 157.129c.427 5.801 4.182 11.017 8.408 11.669 4.205.629 7.285-3.552 6.858-9.375-.428-5.801-4.182-11.017-8.409-11.669-4.204-.63-7.284 3.575-6.857 9.375ZM225.799 155.804c.428 5.823 3.89 11.242 7.735 12.074 3.844.832 6.61-3.215 6.182-9.038-.427-5.824-3.889-11.242-7.734-12.074-3.844-.854-6.61 3.193-6.183 9.038Z" opacity=".3"/><path fill="#764678" fill-rule="evenodd" d="M220.426 167.291a6.698 6.698 0 0 1-1.011.764c-.427.27-.877.472-1.349.63a5.722 5.722 0 0 1-2.631.157 3.798 3.798 0 0 1-.405-.067c-2.068-.428-4.001-1.799-5.53-3.778-.99-1.259-1.799-2.788-2.361-4.451a13.7 13.7 0 0 1-.742-3.08c-.067-.36-.09-.72-.135-1.08a23.744 23.744 0 0 1-.022-1.034c-.023-3.17.989-5.913 2.81-7.599 1.394-1.304 3.125-1.821 4.991-1.574 1.259.202 2.473.742 3.575 1.551 2.496 1.822 4.452 4.992 5.239 8.589.105.435.187.877.247 1.326v.023c.045.33.075.659.09.989.27 3.62-.742 6.768-2.766 8.634Zm2.069-8.589a6.643 6.643 0 0 0-.09-.787 10.45 10.45 0 0 0-.225-1.371 15.205 15.205 0 0 0-1.911-4.834c-.877-1.417-1.956-2.608-3.148-3.463-.989-.719-2.068-1.191-3.192-1.348-.81-.113-1.574-.068-2.316.157a5.367 5.367 0 0 0-2.091 1.214c-.899.854-1.596 2.046-2.046 3.44-.18.562-.315 1.169-.404 1.821v.022c-.045.36-.09.742-.113 1.125a13.84 13.84 0 0 0 .023 1.663c.045.405.067.81.134 1.214.405 2.698 1.507 5.194 3.013 7.105 1.394 1.754 3.125 3.013 4.969 3.418.15.03.3.052.45.067 1.326.18 2.585-.09 3.687-.832.24-.15.472-.33.697-.539.562-.518 1.057-1.192 1.439-1.956h.022v-.023c.015-.015.023-.03.023-.045.832-1.664 1.236-3.777 1.079-6.048Z" clip-rule="evenodd"/><path fill="#764678" d="M227.149 157.603a.628.628 0 0 1-.449-.022c-.09-.023-2.136-.832-4.834.607-.337.135-.742.045-.922-.293a.678.678 0 0 1 .292-.899c3.238-1.776 5.868-.697 5.981-.652a.69.69 0 0 1 .36.877.651.651 0 0 1-.428.382Z"/><path fill="#30262A" d="M227.599 170.843a.154.154 0 0 1-.113-.045c-.045-.022-3.462-2.248-7.104-1.012-.113.023-.225-.022-.248-.135-.045-.112 0-.224.113-.247 3.844-1.326 7.307.967 7.464 1.057.09.067.113.202.045.292a.193.193 0 0 1-.157.09Z"/><path fill="#F8B68F" d="M158.148 314.016s16.008-3.417 23.743 2.271c7.711 5.666 13.287 18.728 7.756 16.233-5.531-2.496-11.713-7.622-11.713-7.622s12.703 11.601 8.701 13.4c-4.002 1.798-14.952-8.409-14.952-8.409s14.007 15.019 9.69 15.491c-4.339.472-14.906-11.017-14.906-11.017s12.478 14.502 7.442 14.929c-5.036.427-10.23-12.051-14.254-10.252-4.002 1.798-14.547 5.89-25.384-3.193l23.877-21.831Z"/><path fill="#E47E6A" d="M177.933 325.236a.373.373 0 0 1-.27-.113c-.045-.045-3.035-3.709-5.823-3.462-.18.022-.36-.135-.382-.337 0-.18.135-.36.337-.383 3.125-.269 6.273 3.553 6.408 3.733.112.134.09.359-.045.494a.435.435 0 0 1-.225.068ZM172.134 330.271a.32.32 0 0 1-.27-.135c-.045-.023-3.035-3.687-5.801-3.44a.343.343 0 0 1-.382-.337.35.35 0 0 1 .315-.382c3.148-.27 6.273 3.552 6.408 3.732.134.135.112.359-.045.494a.435.435 0 0 1-.225.068ZM166.468 334.723a.32.32 0 0 1-.27-.135c-.045-.045-3.597-4.407-6.52-3.89-.202.023-.382-.09-.405-.292a.33.33 0 0 1 .293-.405c3.305-.584 7.014 3.957 7.172 4.137.135.157.112.382-.045.495a.36.36 0 0 1-.225.09Z"/><path fill="#F8B68F" d="m143.647 340.411 15.626-26.597c-10.905-3.215-14.614-12.141-15.109-16.21-1.484-12.164 2.136-18.009 13.198-36.423 9.577-15.941 23.899-31.814 23.989-31.948 0 0 .292-3.575-6.453-6.296-13.782-5.575-22.258-6.16-25.36-6.138-.832 0-1.642.338-2.249.922-5.531 5.329-10.882 12.95-20.167 27.385-16.727 26.035-17.649 47.461-12.591 64.728 2.968 10.14 13.603 26.373 29.116 30.577ZM235.58 202.165s12.321 74.374 23.36 86.694c17.919 20.055 39.188-.292 37.614-14.951-1.956-18.279-38.221-79.365-38.221-79.365l-22.753 7.622Z"/><path fill="#F8B68F" d="M258.333 194.542s-8.544-18.481-18.347-22.955c-9.78-4.475-11.803 0-6.362 2.967 4.721 2.586 5.418 6.813 5.418 6.813s-9.69 1.529-10.792 7.711c-.225 1.282.023 3.126 1.844 3.126 0 0-.81 2.742-.63 3.597 1.979 9.443 12.771 9.645 12.771 9.645l16.098-10.904Z"/><path fill="#E47E6A" d="M290.776 260.687a.433.433 0 0 1-.405-.314c-2.024-7.622-6.026-16.728-9.061-23.001-3.26-6.834-6.093-11.916-6.115-11.961a.408.408 0 0 1 .157-.562c.202-.135.45-.045.562.158.023.045 2.878 5.148 6.161 11.983 3.035 6.34 7.082 15.491 9.105 23.158a.416.416 0 0 1-.292.517.251.251 0 0 1-.112.022ZM244.124 184.762c-.09 0-.18-.045-.202-.157-.877-2.99-4.834-3.035-4.879-3.035a.202.202 0 0 1-.202-.203c0-.112.09-.224.202-.224.045 0 4.317.045 5.284 3.35.045.112-.023.224-.135.269h-.068ZM241.448 186.493c-.09 0-.158-.045-.203-.135-1.866-4.047-6.183-3.665-6.362-3.642-.113.022-.225-.068-.225-.18-.023-.135.067-.225.18-.247.045 0 4.789-.45 6.79 3.889.067.113.022.248-.09.292a.2.2 0 0 1-.09.023ZM237.11 187.302a.238.238 0 0 1-.203-.112c-1.731-3.44-5.261-2.473-5.418-2.428a.245.245 0 0 1-.27-.158.208.208 0 0 1 .158-.247c.045-.022 4.024-1.102 5.913 2.631.045.112.022.247-.09.292a.199.199 0 0 1-.09.022ZM229.442 192.316h-.112c-.585-.09-.967-.719-1.192-1.978a.208.208 0 0 1 .157-.248c.135-.022.248.068.248.18.18.989.494 1.574.832 1.619.719.09 1.866-1.641 2.405-2.765.068-.113.203-.158.293-.09.112.045.157.18.112.269-.157.315-1.529 3.013-2.743 3.013Z"/><path fill="#E47E6A" d="M230.162 197.577c-.09 0-.158-.068-.203-.135-1.596-4.115.585-6.363.675-6.475a.269.269 0 0 1 .315 0 .27.27 0 0 1 0 .314c-.023 0-.54.54-.877 1.529-.292.922-.495 2.451.292 4.474.045.09-.022.225-.112.27a.2.2 0 0 1-.09.023Z"/><path fill="#E47E6A" fill-rule="evenodd" d="M282.008 288.949c0 .562-.18 1.169-.517 1.798-.584.967-1.551 1.844-2.743 2.451a8.856 8.856 0 0 1-1.574.584c-.494.113-.989.18-1.439.18-.194 0-.389-.015-.584-.045-1.192-.112-2.091-.674-2.518-1.528-.427-.855-.337-1.912.27-2.946.562-.967 1.528-1.843 2.72-2.45a8.68 8.68 0 0 1 1.551-.585c.72-.157 1.394-.225 2.046-.157 1.192.135 2.091.674 2.518 1.551.18.345.27.727.27 1.147Zm-1.011-.787a1.79 1.79 0 0 0-.697-.72c-.315-.18-.72-.292-1.17-.337a2.393 2.393 0 0 0-.472-.045c-.472 0-.966.09-1.461.225-.405.12-.802.277-1.192.472-1.034.517-1.888 1.259-2.383 2.113-.45.787-.54 1.552-.225 2.136.293.607.945.99 1.866 1.08.585.067 1.259-.001 1.911-.18a5.334 5.334 0 0 0 1.192-.473c1.057-.517 1.911-1.281 2.383-2.113.472-.787.54-1.551.248-2.158Z" clip-rule="evenodd"/><path fill="#E47E6A" d="M230.903 172.33a.243.243 0 0 1-.225-.18c-.135-.742 0-1.349.36-1.799.607-.786 1.664-.854 1.709-.876.112 0 .225.09.225.202 0 .112-.09.225-.203.225-.022 0-.922.09-1.394.697-.285.374-.374.862-.27 1.461.023.135-.045.247-.179.27h-.023ZM238.481 204.502c-2.811 0-3.733-1.012-3.778-1.057-.067-.09-.067-.225.023-.292a.192.192 0 0 1 .292.022c.023 0 1.124 1.147 4.632.855.112-.023.202.067.224.18a.244.244 0 0 1-.202.247c-.435.03-.832.045-1.191.045Z"/><path fill="#30262A" d="M170.424 180.331a15.09 15.09 0 0 1-1.214-.158c-.112-.022-.202.068-.225.18-.022.113.045.203.158.225.472.09.876.135 1.236.158h.023c.112 0 .202-.09.202-.18.023-.135-.067-.225-.18-.225Zm-3.215-.585c-.652-.18-1.326-.359-1.978-.584-.113-.045-.225.022-.27.135-.045.09.022.224.135.247a39.74 39.74 0 0 0 2.001.607h.067c.09 0 .157-.067.18-.157a.18.18 0 0 0-.135-.248Zm-3.912-1.304a23.87 23.87 0 0 1-1.889-.854c-.112-.045-.224 0-.292.112-.045.09 0 .225.113.27.607.292 1.236.585 1.911.855.015.015.037.022.067.022.09 0 .157-.045.202-.135.045-.112-.022-.225-.112-.27Zm-3.71-1.821a37.212 37.212 0 0 1-1.708-1.146.214.214 0 0 0-.293.045.213.213 0 0 0 .045.292c.54.404 1.124.787 1.754 1.169.03.015.06.022.09.022.09 0 .157-.045.18-.112.067-.09.045-.225-.068-.27Zm-3.282-2.45a14.635 14.635 0 0 1-1.394-1.529c-.068-.09-.18-.09-.27-.023a.213.213 0 0 0-.045.292c.427.54.899 1.057 1.417 1.552a.213.213 0 0 0 .157.067c.045 0 .09-.022.135-.067.09-.09.09-.225 0-.292Zm-2.541-3.216a19.876 19.876 0 0 1-.989-1.798c-.067-.113-.18-.135-.292-.09-.09.045-.135.18-.09.27.315.614.659 1.229 1.034 1.843.022.068.09.09.157.09a.253.253 0 0 0 .113-.022c.112-.068.135-.203.067-.293Zm-1.843-3.664a32.828 32.828 0 0 1-.675-1.956.18.18 0 0 0-.247-.135.18.18 0 0 0-.135.247c.18.675.405 1.327.674 1.979.023.09.113.134.203.134h.067c.113-.044.158-.179.113-.269Zm-1.394-6.003c0-.113-.113-.18-.225-.18a.19.19 0 0 0-.18.225c.045.697.135 1.394.247 2.068.023.113.113.18.203.18h.045a.207.207 0 0 0 .157-.247 20.484 20.484 0 0 1-.247-2.046Zm-.045-4.317c-.113-.023-.203.045-.225.18-.113.674-.158 1.394-.18 2.068 0 .135.09.225.202.225.113 0 .203-.09.203-.202.022-.675.09-1.372.18-2.046.022-.113-.068-.225-.18-.225Zm1.056-4.024c-.112-.023-.224.022-.269.134a15.61 15.61 0 0 0-.607 2.001c-.045.113.045.225.134.248h.068c.09 0 .18-.045.202-.158.158-.652.36-1.304.585-1.956.045-.112 0-.225-.113-.269Zm13.018-1.372c-.674.023-1.371 0-2.046-.045-.112-.022-.225.068-.225.18-.022.112.068.225.18.225.495.045.989.067 1.462.067.209 0 .427-.007.652-.022.112 0 .202-.09.202-.203-.023-.112-.112-.202-.225-.202Zm4.294-.495a.18.18 0 0 0-.247-.134c-.652.179-1.326.314-2.001.427-.112.022-.202.135-.18.247.023.09.113.18.203.18.015 0 .029-.008.044-.023.697-.09 1.394-.247 2.046-.449a.18.18 0 0 0 .135-.248Zm-8.386.18a36.58 36.58 0 0 1-2.001-.472.18.18 0 0 0-.247.135c-.045.112.022.225.135.27.674.18 1.371.36 2.046.472h.022c.113 0 .203-.067.225-.157.023-.113-.067-.225-.18-.248Zm-7.127-2.046c-.09-.045-.225-.022-.27.068a21.26 21.26 0 0 0-.989 1.866c-.045.09 0 .225.09.27.03.015.06.022.09.022.09 0 .157-.045.18-.112.292-.63.629-1.237.989-1.821.045-.113.022-.225-.09-.293Zm19.268.09c-.067-.112-.202-.135-.292-.067a9.262 9.262 0 0 1-1.799.989c-.09.068-.135.18-.09.292.023.068.113.113.18.113a.2.2 0 0 0 .09-.023 11.165 11.165 0 0 0 1.844-1.011.248.248 0 0 0 .067-.293Zm-16.075.81c-.63-.248-1.259-.54-1.866-.855-.113-.045-.248-.022-.293.09-.045.09 0 .225.09.27.63.337 1.259.63 1.911.877.03.015.053.022.068.022.09 0 .18-.045.202-.135.045-.112 0-.224-.112-.269Zm-3.665-1.866c-.562-.383-1.147-.765-1.686-1.17a.194.194 0 0 0-.293.023.213.213 0 0 0 .045.292c.562.427 1.125.832 1.709 1.192a.22.22 0 0 0 .112.045c.068 0 .135-.045.18-.113.068-.09.023-.224-.067-.269Zm22.371-2.091c-.113-.045-.225 0-.293.112a6.113 6.113 0 0 1-1.101 1.664c-.068.067-.068.202.022.292.03.03.075.045.135.045.06 0 .112-.022.157-.067.495-.562.9-1.147 1.169-1.777.045-.112 0-.224-.089-.269Zm-19.448-.293a.213.213 0 0 0-.293.023 29.59 29.59 0 0 0-1.281 1.641c-.068.113-.045.225.045.292.03.03.067.045.112.045a.203.203 0 0 0 .18-.09c.382-.539.81-1.101 1.259-1.618.09-.09.068-.203-.022-.293Zm-6.206-.09c-.517-.449-1.011-.944-1.506-1.439-.067-.067-.202-.067-.292 0-.068.09-.068.225 0 .293.494.517 1.011.989 1.529 1.439a.15.15 0 0 0 .134.067.243.243 0 0 0 .158-.067c.067-.09.067-.225-.023-.293Zm9.196-2.787c-.068-.09-.202-.09-.292-.023-.517.427-1.057.899-1.552 1.394-.09.09-.09.225 0 .292.045.045.09.068.135.068a.205.205 0 0 0 .158-.068 28.764 28.764 0 0 1 1.528-1.371.192.192 0 0 0 .023-.292Zm16.39-.742c-.045-.09-.157-.135-.27-.09-.112.067-.135.18-.09.292.33.614.51 1.244.54 1.888 0 .113.09.203.202.203.113 0 .203-.113.203-.225-.023-.697-.225-1.394-.585-2.068Zm-28.486.584c-.427-.517-.877-1.057-1.281-1.619-.068-.09-.203-.09-.293-.022-.09.067-.112.18-.045.292.427.54.855 1.102 1.304 1.619a.243.243 0 0 0 .158.067c.06 0 .105-.015.135-.045.089-.09.112-.202.022-.292Zm15.558-2.136c-.045-.09-.18-.135-.269-.067a16.4 16.4 0 0 0-1.799 1.079.245.245 0 0 0-.068.292c.045.068.113.09.18.09a.154.154 0 0 0 .113-.045 23.974 23.974 0 0 1 1.753-1.056c.113-.068.158-.18.09-.293Zm11.624-.135a6.213 6.213 0 0 0-1.754-1.191c-.112-.045-.224 0-.292.09-.045.112 0 .225.113.292.607.27 1.169.652 1.663 1.102.045.045.09.067.135.067.06 0 .113-.022.158-.067.067-.09.067-.225-.023-.293Zm-7.757-1.349a.206.206 0 0 0-.247-.157c-.652.18-1.326.382-2.001.674-.112.023-.157.158-.112.27.022.068.112.113.202.113h.067c.652-.27 1.305-.495 1.957-.652.089-.023.179-.135.134-.248Zm-21.921.338a32.941 32.941 0 0 1-1.101-1.754c-.068-.09-.18-.135-.293-.068-.089.068-.134.18-.067.293.36.584.742 1.191 1.124 1.753.045.068.113.09.18.09.03 0 .068-.015.112-.045.09-.045.113-.179.045-.269Zm25.878-.787a9.397 9.397 0 0 0-2.113-.045c-.135 0-.202.09-.202.225 0 .112.112.179.225.179.696-.045 1.393-.045 2.023.068h.022c.113 0 .203-.09.225-.18 0-.112-.067-.225-.18-.247Zm-27.991-2.766c-.337-.607-.63-1.236-.922-1.843-.045-.113-.157-.158-.27-.113-.112.045-.157.18-.112.27.292.63.607 1.259.922 1.889.045.067.112.112.18.112a.248.248 0 0 0 .112-.022c.09-.068.135-.18.09-.293Zm-1.686-3.754a21.976 21.976 0 0 1-.652-1.956.245.245 0 0 0-.27-.158.258.258 0 0 0-.135.27c.202.652.405 1.327.652 1.979.045.089.113.134.202.134h.068c.112-.045.157-.157.135-.269Zm-1.147-3.957a32.405 32.405 0 0 1-.337-2.046c0-.113-.113-.18-.225-.18-.112.022-.202.112-.18.225.09.697.203 1.394.337 2.068.023.112.113.18.203.18h.045a.207.207 0 0 0 .157-.247Zm-.472-6.138c.023-.135-.067-.225-.18-.225a.19.19 0 0 0-.225.18c-.03.434-.045.877-.045 1.326 0 .255.008.517.023.787 0 .113.09.203.202.203.135-.023.225-.113.203-.225v-.765c0-.434.007-.862.022-1.281Zm.427-4.339a.206.206 0 0 0-.247.157 22.387 22.387 0 0 0-.382 2.068.19.19 0 0 0 .18.225h.022c.112 0 .202-.067.202-.18.113-.652.225-1.349.383-2.023.022-.113-.045-.203-.158-.247Zm1.282-3.935c-.113-.045-.225 0-.27.112-.27.652-.495 1.304-.72 1.979-.022.09.045.225.135.247.03.015.053.023.068.023.09 0 .18-.068.202-.158.203-.652.427-1.304.697-1.933.045-.113-.022-.225-.112-.27Zm1.843-3.732c-.112-.045-.247-.023-.292.09-.36.607-.674 1.214-.989 1.843-.045.113 0 .225.112.27a.2.2 0 0 0 .09.023c.068 0 .135-.045.18-.113.292-.607.63-1.214.967-1.821.067-.112.022-.225-.068-.292Zm2.294-3.463c-.113-.067-.225-.045-.293.045a25.931 25.931 0 0 0-1.191 1.709c-.068.112-.045.225.045.292.045.03.082.045.112.045.068 0 .135-.045.18-.112.36-.562.764-1.124 1.169-1.686a.193.193 0 0 0-.022-.293Zm2.63-3.192c-.067-.09-.202-.068-.292 0a29.98 29.98 0 0 0-1.349 1.596c-.068.09-.068.225.022.292.045.03.09.045.135.045.068 0 .113-.022.158-.09.427-.517.876-1.034 1.349-1.551a.192.192 0 0 0-.023-.292Zm2.945-2.945c-.067-.09-.202-.09-.292-.023-.517.472-1.012.967-1.506 1.461-.068.068-.068.203 0 .293a.214.214 0 0 0 .157.067c.06 0 .105-.022.135-.067.495-.495.989-.967 1.506-1.439.09-.09.09-.203 0-.292Zm3.193-2.698a.211.211 0 0 0-.292-.023c-.562.427-1.102.877-1.619 1.327a.193.193 0 0 0-.023.292.217.217 0 0 0 .158.067c.045 0 .09-.015.135-.045.517-.45 1.056-.899 1.596-1.326a.213.213 0 0 0 .045-.292Zm3.417-2.384c-.067-.09-.202-.135-.292-.067-.022.022-.697.405-1.754 1.169a.213.213 0 0 0-.044.292c.044.045.112.09.157.09s.09-.015.135-.045a40.064 40.064 0 0 1 1.708-1.146.227.227 0 0 0 .09-.293ZM156.665 184.537c-.66 0-1.349-.015-2.069-.045a.201.201 0 0 0-.202.202.19.19 0 0 0 .18.225c.584.03 1.146.045 1.686.045.135 0 .27-.008.405-.023.112 0 .224-.089.202-.202a.201.201 0 0 0-.202-.202Zm2.922-.18-.854.09c-.112 0-.202.09-.202.225.022.09.112.18.224.18l.877-.09c.135-.023.203-.113.18-.225a.19.19 0 0 0-.225-.18Zm-7.059 0c-.652-.068-1.349-.135-2.046-.225-.113-.022-.225.068-.248.18 0 .112.068.225.18.225.72.09 1.417.18 2.091.247h.023c.09 0 .18-.09.202-.202 0-.113-.09-.203-.202-.225Zm-4.092-.517c-.675-.113-1.372-.225-2.046-.36a.208.208 0 0 0-.248.157.208.208 0 0 0 .158.248c.697.135 1.394.247 2.068.359h.023c.112 0 .18-.067.202-.179.023-.113-.045-.203-.157-.225Zm-4.092-.787c-.652-.135-1.327-.292-2.024-.45-.09-.022-.224.045-.247.158a.208.208 0 0 0 .157.247c.697.157 1.372.315 2.046.472h.023c.112 0 .202-.067.202-.18.045-.112-.045-.202-.157-.247Zm-4.025-.944c-.674-.18-1.349-.36-2.001-.562-.112-.023-.224.044-.269.157a.206.206 0 0 0 .157.247c.652.203 1.326.382 2.001.54.015.015.037.022.067.022.09 0 .158-.067.18-.157a.18.18 0 0 0-.135-.247Zm-4.002-1.147c-1.236-.36-1.978-.63-1.978-.63-.113-.045-.225.023-.27.135-.022.113.023.225.135.27 0 0 .764.247 2.001.63h.045c.09 0 .18-.045.202-.135.045-.113-.022-.225-.135-.27Z"/><path fill="#000" d="M327.042 196.408s1.866-6.386 6.565-8.274c4.699-1.889 16.052-1.147 16.997-6.992.922-5.846-4.834-9.803-8.566-8.791-3.755 1.011-3.8 4.316-5.621 3.732-1.821-.585-11.646-5.441-7.937-10.477 3.71-5.036 14.007-9.218 22.304-4.946 8.296 4.249 19.11 10.364 15.648 22.168-3.463 11.826-9.758 13.715-17.042 13.242-7.262-.472-7.982 7.172-10.545 6.858-2.563-.315-12.568-4.542-11.803-6.52ZM319.128 205.829c3.035-4.002 7.104-5.284 11.061-3.103 3.935 2.181 6.116 6.003 4.34 11.579-1.372 4.249-8.207 4.722-12.164 2.541-3.934-2.181-5.913-7.465-3.237-11.017Z"/><path fill="#30262A" fill-rule="evenodd" d="M369.488 184.313c-1.619 5.531-3.98 9.241-7.172 11.309-2.563 1.687-5.756 2.316-10.05 2.046-4.429-.292-6.408 2.541-7.847 4.609-.854 1.237-1.573 2.249-2.54 2.249h-.18c-1.169-.158-3.8-1.08-6.25-2.204-1.012-.472-2.496-1.214-3.688-2.001-.832-.539-1.528-1.124-1.843-1.663-.195-.33-.248-.63-.158-.9.09-.247 2.001-6.497 6.655-8.386 1.484-.585 3.575-.922 5.801-1.282 4.901-.764 10.455-1.663 11.084-5.575.405-2.541-.472-5.014-2.451-6.768a7.575 7.575 0 0 0-2.922-1.686c-1.035-.315-2.046-.382-2.968-.135-1.934.54-2.833 1.664-3.552 2.586-.675.809-1.192 1.461-2.159 1.146-.742-.225-2.405-1.011-4.114-2.113h-.023c-1.933-1.282-3.912-3.035-4.541-4.946-.405-1.282-.203-2.518.652-3.665 3.35-4.542 12.118-8.521 20.032-6.048.84.27 1.671.615 2.496 1.034 9.375 4.812 19.088 10.904 15.738 22.393Zm-13.692-20.931a154.65 154.65 0 0 0-2.204-1.147c-8.318-4.272-18.458-.023-22.078 4.901-.787 1.057-.989 2.181-.607 3.35.742 2.316 3.642 4.407 5.936 5.666 1.079.607 2.023 1.012 2.518 1.169.697.247 1.079-.202 1.776-1.034.697-.899 1.686-2.136 3.732-2.698a5.352 5.352 0 0 1 2.383-.045c1.327.225 2.698.899 3.845 1.933 2.046 1.844 2.99 4.43 2.563 7.105-.675 4.159-6.363 5.059-11.377 5.868-2.203.337-4.294.675-5.733 1.259-4.564 1.821-6.43 8.094-6.452 8.162v.022c-.06.165-.023.36.112.585.585.989 2.833 2.315 5.239 3.44 2.473 1.169 5.103 2.113 6.295 2.248.854.112 1.529-.877 2.406-2.091 1.483-2.136 3.507-5.059 8.138-4.766 11.242.741 14.749-5.869 16.863-13.108 3.012-10.32-4.857-16.233-13.355-20.819ZM337.584 215.766c-.472 1.483-1.619 2.608-3.327 3.282-1.124.45-2.406.675-3.733.675-1.866 0-3.799-.45-5.35-1.304a9.303 9.303 0 0 1-1.372-.945 9.007 9.007 0 0 1-3.035-4.946c-.405-1.979-.023-3.89 1.124-5.373 2.091-2.788 4.676-4.227 7.329-4.227.525 0 1.05.052 1.574.157.795.18 1.582.48 2.361.899 4.497 2.496 6.048 6.678 4.429 11.782Zm-4.586-11.467c-.435-.24-.87-.442-1.304-.607h-.023a7.188 7.188 0 0 0-2.473-.449c-2.541 0-4.991 1.416-7.037 4.114a6.042 6.042 0 0 0-1.192 3.642c0 .48.053.967.158 1.462.449 2.113 1.821 4.091 3.664 5.306.18.119.368.232.562.337 2.496 1.394 6.183 1.641 8.769.629 1.596-.652 2.675-1.708 3.125-3.08 1.574-4.924.067-8.971-4.249-11.354Z" clip-rule="evenodd"/></g><defs><linearGradient id="paint0_linear_4504_6683" x1="0" x2="423.385" y1="96.359" y2="140.915" gradientUnits="userSpaceOnUse"><stop stop-color="#FCEEEA"/><stop offset="1" stop-color="#E5F0FA"/></linearGradient><clipPath id="clip0_4504_6683"><rect width="410" height="409" y=".5" fill="#fff" rx="40"/></clipPath></defs></svg>