<svg xmlns="http://www.w3.org/2000/svg" width="19" height="32" fill="none" viewBox="0 0 19 32"><path fill="#9B3A21" fill-rule="evenodd" d="M13.39 11.875c2.137 2.14 2.185 5.56.109 7.64-2.077 2.08-5.493 2.03-7.63-.11-2.137-2.139-2.185-5.559-.108-7.639s5.492-2.03 7.63.109Zm-2.163 2.633v-.72H12v-.787H8v.787h2.227v.72H8v.678h2.211c-.03.219-.104.38-.223.486-.118.106-.314.178-.587.214-.272.037-.684.055-1.234.055v1.132c0 .643.145 1.125.435 1.446.291.32.71.482 1.262.482.494 0 .877-.156 1.144-.466.267-.31.412-.741.431-1.295h-.992c0 .29-.051.509-.155.654-.103.144-.261.217-.473.217-.435 0-.651-.29-.651-.87v-.529c.656 0 1.145-.128 1.465-.385.32-.257.511-.638.572-1.14H12v-.679h-.773Z" clip-rule="evenodd"/><path fill="#F75D34" d="M15.492 0H3.508C1.58 0 0 1.55 0 3.44v25.12C0 30.45 1.58 32 3.508 32h11.984C17.42 32 19 30.45 19 28.56V3.44C19 1.55 17.42 0 15.492 0ZM11.01 30.552H7.633a.903.903 0 0 1-.912-.894c0-.494.408-.894.912-.894h3.378c.504 0 .912.4.912.894a.909.909 0 0 1-.912.894Zm6.13-24.83V26.44a.9.9 0 0 1-.902.886H2.76a.9.9 0 0 1-.903-.885V5.569a.9.9 0 0 1 .903-.886H16.24a.9.9 0 0 1 .903.886v.153Z"/></svg>