<svg xmlns="http://www.w3.org/2000/svg" width="84" height="84" fill="none" viewBox="0 0 84 84"><path fill="#6F2918" d="M42 83.54c22.92 0 41.5-18.581 41.5-41.5C83.5 19.12 64.92.54 42 .54S.5 19.12.5 42.04c0 22.919 18.58 41.5 41.5 41.5Z"/><path fill="url(#paint0_linear_6744_97425)" d="m41.482 75.187-2.475 1.352.897-2.282-2.404-1.436 3.014-.028.968-2.254 1.005 2.254 3.013.028-2.404 1.436.861 2.282-2.475-1.352Z"/><path fill="#fff" d="m41.482 75.187-2.475 1.352.897-2.282-2.404-1.436 3.014-.028.968-2.254 1.005 2.254 3.013.028-2.404 1.436.861 2.282-2.475-1.352Z"/><path fill="url(#paint1_linear_6744_97425)" d="m57.482 72.187-2.475 1.352.897-2.282-2.404-1.436 3.014-.028.968-2.254 1.005 2.254 3.013.028-2.404 1.436.861 2.282-2.475-1.352Z"/><path fill="#fff" d="m57.482 72.187-2.475 1.352.897-2.282-2.404-1.436 3.014-.028.968-2.254 1.005 2.254 3.013.028-2.404 1.436.861 2.282-2.475-1.352Z"/><path fill="url(#paint2_linear_6744_97425)" d="m69.482 62.187-2.475 1.352.897-2.282-2.404-1.436 3.013-.028.97-2.254 1.004 2.254 3.013.028-2.404 1.436.861 2.282-2.475-1.352Z"/><path fill="#fff" d="m69.482 62.187-2.475 1.352.897-2.282-2.404-1.436 3.013-.028.97-2.254 1.004 2.254 3.013.028-2.404 1.436.861 2.282-2.475-1.352Z"/><path fill="url(#paint3_linear_6744_97425)" d="m16.482 62.187-2.475 1.352.897-2.282-2.404-1.436 3.014-.028.968-2.254 1.005 2.254 3.013.028-2.404 1.436.861 2.282-2.475-1.352Z"/><path fill="#fff" d="m16.482 62.187-2.475 1.352.897-2.282-2.404-1.436 3.014-.028.968-2.254 1.005 2.254 3.013.028-2.404 1.436.861 2.282-2.475-1.352Z"/><path fill="url(#paint4_linear_6744_97425)" d="m25.984 72.187-2.166 1.352.785-2.282-2.103-1.436 2.637-.028.847-2.254.88 2.254 2.636.028-2.103 1.436.753 2.282-2.166-1.352Z"/><path fill="#fff" d="m25.984 72.187-2.166 1.352.785-2.282-2.103-1.436 2.637-.028.847-2.254.88 2.254 2.636.028-2.103 1.436.753 2.282-2.166-1.352ZM42 .54C19.08.54.5 19.12.5 42.04h83C83.5 19.12 64.92.54 42 .54Z"/><path fill="#6F2918" d="M12.182 38.973c-.551-.057-1.027-.228-1.428-.511a2.484 2.484 0 0 1-.89-1.099 2.878 2.878 0 0 1-.189-1.491c.081-.662.325-1.21.733-1.645.407-.434.923-.7 1.547-.795l-.182 1.493a1.237 1.237 0 0 0-.591.421 1.334 1.334 0 0 0-.267.672c-.051.418.053.772.314 1.062.26.29.634.46 1.122.512.488.05.893-.038 1.217-.267.323-.229.51-.552.561-.97a1.301 1.301 0 0 0-.099-.71 1.177 1.177 0 0 0-.475-.533l.182-1.493c.586.222 1.025.587 1.317 1.095.288.507.391 1.092.31 1.754a2.997 2.997 0 0 1-.535 1.415 2.68 2.68 0 0 1-1.131.887 3.03 3.03 0 0 1-1.516.203ZM16.128 29.3l-.761 1.953.818.63-.52 1.335-4.584-3.688.575-1.476 6.06-.099-.526 1.35-1.062-.004ZM15 29.292l-2.201-.009 1.698 1.299.503-1.29ZM19.37 25.435l-2.486-.034-.177.277 1.86 1.019-.736 1.153-4.925-2.7 1.235-1.935c.238-.373.508-.653.81-.84.304-.19.618-.286.94-.286.316-.002.62.077.91.235.327.18.562.43.705.75.145.317.161.678.048 1.083l2.647-.023-.83 1.301Zm-3.512-.223.456-.715c.135-.211.182-.398.14-.56-.038-.167-.156-.304-.352-.412a.709.709 0 0 0-.546-.08c-.173.044-.327.172-.462.383l-.456.715 1.22.67ZM17.817 18.695c.416-.421.87-.713 1.359-.876.49-.163.982-.192 1.476-.087.493.098.952.327 1.375.686.418.355.704.758.857 1.209.157.447.167.905.031 1.376-.132.467-.404.909-.816 1.326l-1.479 1.497-4.281-3.634 1.478-1.497Zm3.317 2.93c.364-.367.539-.745.526-1.133-.013-.388-.217-.75-.611-1.084-.395-.335-.803-.493-1.225-.474-.422.018-.815.212-1.178.58l-.456.46 2.489 2.113.455-.461ZM23.072 15.719l.702.893 1.518-1.026.653.83-1.518 1.026.762.968 1.716-1.16.678.86-2.85 1.927-3.472-4.414 2.85-1.926.677.861-1.716 1.16ZM31.675 16.257l-2.854-1.454 1.124 2.21-1.253.548-2.547-5.005 1.254-.548 1.117 2.196.598-2.946 1.473-.644-.745 3.324 3.365 1.649-1.532.67ZM36.831 9.151l1.372 5.446-1.337.29-.565-2.242-2.08.45.565 2.242-1.337.29-1.372-5.446 1.337-.29.538 2.133 2.08-.45-.538-2.133 1.337-.29ZM41.89 14.53a2.954 2.954 0 0 1-1.458-.362 2.801 2.801 0 0 1-1.053-1.02 2.92 2.92 0 0 1-.391-1.487 2.874 2.874 0 0 1 .377-1.481c.26-.439.607-.781 1.043-1.028a2.952 2.952 0 0 1 1.455-.374 2.91 2.91 0 0 1 1.45.362c.443.243.791.583 1.044 1.02.258.436.388.929.391 1.478a2.918 2.918 0 0 1-.377 1.49c-.254.438-.6.78-1.035 1.028a2.908 2.908 0 0 1-1.447.374Zm-.006-1.248c.448-.002.804-.153 1.07-.453.27-.3.404-.695.402-1.185-.002-.496-.14-.89-.413-1.183-.269-.297-.627-.445-1.075-.443-.453.002-.815.15-1.086.444-.265.294-.396.692-.394 1.194.002.496.138.892.406 1.19.273.292.636.438 1.09.436ZM52.877 12.387c-.1.31-.264.574-.491.793a1.758 1.758 0 0 1-.862.433c-.349.075-.744.05-1.186-.072l-.818-.226-.618 1.919-1.318-.366 1.723-5.345 2.135.592c.432.12.773.294 1.024.524.25.23.409.495.474.795.066.3.045.618-.063.953Zm-2.306.091c.252.07.459.063.62-.02.16-.082.276-.23.344-.443.069-.213.06-.395-.025-.546-.086-.15-.255-.261-.507-.331l-.717-.199-.432 1.34.717.2ZM55.041 17.449l-.005-2.356-.295-.144-1.045 1.845-1.23-.6 2.769-4.885 2.064 1.005c.398.194.698.425.9.695.207.273.312.561.317.865.008.3-.07.594-.233.882a1.748 1.748 0 0 1-.78.73c-.332.164-.713.21-1.142.136l.069 2.503-1.389-.676Zm.178-3.342.762.371c.225.11.423.138.594.085.176-.05.319-.173.43-.368.104-.186.13-.36.075-.523-.05-.16-.187-.295-.413-.405l-.762-.371-.686 1.211ZM59.14 19.991a2.809 2.809 0 0 1-.905-1.164 2.506 2.506 0 0 1-.144-1.403c.094-.485.325-.932.692-1.34a3.037 3.037 0 0 1 2.808-.985c.514.089.98.294 1.398.618.418.323.717.71.899 1.16.186.453.232.918.137 1.397-.09.481-.319.926-.686 1.335-.368.408-.801.698-1.3.87a3.07 3.07 0 0 1-2.9-.488Zm.835-.927c.355.274.737.382 1.148.323.415-.056.787-.266 1.115-.63.332-.369.488-.745.47-1.13-.012-.385-.194-.715-.549-.989-.358-.277-.743-.39-1.155-.339-.407.055-.778.269-1.113.641-.332.369-.493.746-.482 1.13.02.385.208.716.566.994ZM70.488 23.807l-4.67 3.12-.839-1.08 2.8-1.871-3.57.88-.678-.872 2.03-2.873-2.806 1.875-.84-1.08 4.67-3.12.992 1.276-2.266 3.404 4.19-.928.987 1.269ZM71.768 26.434l-5.132 2.282-.628-1.215 5.132-2.282.628 1.215ZM67.623 31.17a2.824 2.824 0 0 1-.166-1.102c.023-.345.128-.648.314-.909.189-.255.458-.44.808-.554l.471 1.378c-.193.079-.323.192-.39.34a.68.68 0 0 0 .001.499c.066.192.161.33.286.416.13.084.275.102.433.056a.433.433 0 0 0 .284-.234c.057-.111.092-.24.103-.388.013-.143.015-.344.006-.602-.01-.375.001-.686.034-.935a1.54 1.54 0 0 1 .284-.7c.157-.218.404-.377.741-.476.502-.148.955-.084 1.359.192.409.274.712.698.909 1.274.2.585.218 1.099.054 1.542-.158.44-.487.748-.985.923l-.479-1.4a.54.54 0 0 0 .342-.31.667.667 0 0 0 0-.491.6.6 0 0 0-.26-.34.484.484 0 0 0-.41-.038c-.173.051-.281.172-.323.362-.042.19-.06.473-.056.85 0 .377-.017.688-.052.931a1.57 1.57 0 0 1-.277.698c-.151.217-.388.372-.71.467-.307.09-.613.094-.917.012a1.791 1.791 0 0 1-.827-.49 2.49 2.49 0 0 1-.577-.972ZM73.203 34.726l-1.13.121.227 1.818-1.05.113-.227-1.818-1.225.131.257 2.056-1.09.117-.426-3.413 5.584-.6.426 3.413-1.09.118-.256-2.056Z"/><path fill="url(#paint5_linear_6744_97425)" d="M42.445 63.435c11.608 0 21.017-9.41 21.017-21.018 0-11.607-9.41-21.017-21.017-21.017-11.608 0-21.017 9.41-21.017 21.017 0 11.608 9.41 21.018 21.017 21.018Z"/><path fill="#F75D34" d="M52.094 41.63H33.537l1.698-4.237c.178-.442.481-.82.873-1.088a2.384 2.384 0 0 1 1.326-.417h10.764c.474-.004.94.139 1.332.407.393.27.695.652.867 1.098l1.697 4.236Z"/><path fill="#24272C" d="M34.098 53.287h-1.062a.974.974 0 0 1-.914-.612.99.99 0 0 1-.073-.381v-7.021a.998.998 0 0 1 .608-.925.98.98 0 0 1 .38-.076h1.099c.264 0 .517.105.703.293.187.188.291.442.291.708v7.059a1.026 1.026 0 0 1-.326.685 1.014 1.014 0 0 1-.706.27ZM52.589 53.287h-1.092a.982.982 0 0 1-.92-.611.997.997 0 0 1-.075-.382v-7.021c0-.266.105-.52.291-.708a.992.992 0 0 1 .704-.293h1.092a.983.983 0 0 1 .92.617c.05.121.076.252.075.384v7.059a.97.97 0 0 1-.297.69.958.958 0 0 1-.698.265Z"/><path fill="#F2F3F7" d="m35.176 41.442 1.279-3.477a1.503 1.503 0 0 1 1.384-.926h9.963a1.49 1.49 0 0 1 1.383.926l1.235 3.514-15.244-.037Z"/><path fill="#F75D34" d="M50.71 50.862H34.915a2.834 2.834 0 0 1-1.99-.84 2.869 2.869 0 0 1-.83-2.004v-3.891a2.876 2.876 0 0 1 .834-2.012 2.842 2.842 0 0 1 2-.84h15.82a2.834 2.834 0 0 1 2.003.837c.53.535.83 1.26.832 2.015v3.89a2.898 2.898 0 0 1-.857 2.015 2.863 2.863 0 0 1-2.015.83Z"/><path fill="#F75D34" d="M53.546 43.984v1.355c-7.153.594-14.342.611-21.497.052v-1.407c0-.718.284-1.407.788-1.916a2.684 2.684 0 0 1 1.905-.793h16.111c.714 0 1.4.285 1.904.793.505.509.789 1.198.789 1.916Z"/><path fill="#F2F3F7" d="M34.525 44.985a1.557 1.557 0 0 0 1.45-.967 1.582 1.582 0 0 0-.338-1.718 1.56 1.56 0 0 0-2.668 1.12c.002.414.166.811.458 1.105.291.293.685.458 1.098.46ZM51.108 44.985a1.556 1.556 0 0 0 1.445-.972 1.582 1.582 0 0 0-.342-1.715 1.56 1.56 0 0 0-2.406.246 1.58 1.58 0 0 0-.14 1.477 1.564 1.564 0 0 0 .846.847c.19.078.392.118.597.117Z"/><path fill="#6F2918" d="M48.55 48.296H37.112c-.372 0-.73-.146-.995-.408a1.434 1.434 0 0 1-.427-.991c.004-.671.271-1.313.743-1.787a2.52 2.52 0 0 1 1.778-.742h9.208c.666.002 1.304.27 1.775.743.47.474.736 1.116.738 1.786-.006.368-.153.72-.411.98a1.409 1.409 0 0 1-.973.42Z"/><path fill="#FFA236" d="M32.661 39.258a.784.784 0 0 0-1.057.277.747.747 0 0 0 .283 1.033c.37.21.844.085 1.058-.276a.747.747 0 0 0-.284-1.034ZM53.971 38.248h-.529v-.516a.522.522 0 0 0-.528-.517.522.522 0 0 0-.529.517v.516h-.528a.522.522 0 0 0-.529.517c0 .285.237.516.529.516h.528v.517c0 .285.237.517.529.517a.522.522 0 0 0 .528-.517v-.517h.529a.522.522 0 0 0 .529-.516.522.522 0 0 0-.529-.517ZM32.594 34.122c0 .285.237.516.529.516a.522.522 0 0 0 .528-.516v-.517h.529a.522.522 0 0 0 .529-.516.522.522 0 0 0-.529-.517h-.529v-.516a.522.522 0 0 0-.528-.517.522.522 0 0 0-.529.517v.516h-.528a.522.522 0 0 0-.529.517c0 .285.237.516.529.516h.528v.517Z"/><path fill="#fff" d="M42.443 64.424c-12.095 0-21.943-9.848-21.943-21.942 0-12.095 9.848-21.943 21.943-21.943 12.094 0 21.942 9.848 21.942 21.943 0 12.094-9.782 21.942-21.943 21.942Zm0-41.968c-11.038 0-19.96 8.988-19.96 19.96 0 10.97 8.988 19.96 19.96 19.96 10.97 0 19.96-8.99 19.96-19.96 0-10.972-8.923-19.96-19.96-19.96Z"/><defs><linearGradient id="paint0_linear_6744_97425" x1="-27904.8" x2="-27904.8" y1="24921.4" y2="26397.2" gradientUnits="userSpaceOnUse"><stop stop-color="#C0A150"/><stop offset=".3" stop-color="#EDDE9D"/><stop offset=".55" stop-color="#C0A150"/><stop offset=".78" stop-color="#EDDE9D"/><stop offset="1" stop-color="#B4903A"/></linearGradient><linearGradient id="paint1_linear_6744_97425" x1="-27888.8" x2="-27888.8" y1="24918.4" y2="26394.2" gradientUnits="userSpaceOnUse"><stop stop-color="#C0A150"/><stop offset=".3" stop-color="#EDDE9D"/><stop offset=".55" stop-color="#C0A150"/><stop offset=".78" stop-color="#EDDE9D"/><stop offset="1" stop-color="#B4903A"/></linearGradient><linearGradient id="paint2_linear_6744_97425" x1="-27876.8" x2="-27876.8" y1="24908.4" y2="26384.2" gradientUnits="userSpaceOnUse"><stop stop-color="#C0A150"/><stop offset=".3" stop-color="#EDDE9D"/><stop offset=".55" stop-color="#C0A150"/><stop offset=".78" stop-color="#EDDE9D"/><stop offset="1" stop-color="#B4903A"/></linearGradient><linearGradient id="paint3_linear_6744_97425" x1="-27929.8" x2="-27929.8" y1="24908.4" y2="26384.2" gradientUnits="userSpaceOnUse"><stop stop-color="#C0A150"/><stop offset=".3" stop-color="#EDDE9D"/><stop offset=".55" stop-color="#C0A150"/><stop offset=".78" stop-color="#EDDE9D"/><stop offset="1" stop-color="#B4903A"/></linearGradient><linearGradient id="paint4_linear_6744_97425" x1="-24427" x2="-24427" y1="24918.4" y2="26394.2" gradientUnits="userSpaceOnUse"><stop stop-color="#C0A150"/><stop offset=".3" stop-color="#EDDE9D"/><stop offset=".55" stop-color="#C0A150"/><stop offset=".78" stop-color="#EDDE9D"/><stop offset="1" stop-color="#B4903A"/></linearGradient><linearGradient id="paint5_linear_6744_97425" x1="21.428" x2="64.837" y1="31.252" y2="35.809" gradientUnits="userSpaceOnUse"><stop stop-color="#FCEEEA"/><stop offset="1" stop-color="#E5F0FA"/></linearGradient></defs></svg>