<svg xmlns="http://www.w3.org/2000/svg" width="35" height="43" fill="none" viewBox="0 0 35 43"><g id="Group 2141"><path id="Rectangle 453" fill="#F75D34" d="M5.556 9.18h16.666A2.778 2.778 0 0 1 25 11.957v27.464a2.778 2.778 0 0 1-2.778 2.778H2.778A2.778 2.778 0 0 1 0 39.42V15.29L5.556 9.18Z"/><path id="Vector 102" fill="#9B3A21" d="M7.5 17.024H1.946l5.556-5.903v5.903Z"/><path id="Vector" fill="#FFCD29" d="M28.96 17.66a8.013 8.013 0 0 0 0-11.32 7.987 7.987 0 0 0-11.307 0 8.013 8.013 0 0 0 0 11.32 7.987 7.987 0 0 0 11.306 0Z"/><path id="Vector_2" fill="#fff" d="M25.61 8.217V9.33h1.344v1.049h-1.383c-.105.776-.436 1.365-.993 1.761-.558.397-1.407.596-2.548.596v.816c0 .899.377 1.346 1.132 1.346.369 0 .643-.112.822-.336.18-.224.27-.56.27-1.01h1.726c-.035.855-.286 1.522-.75 2.001-.465.479-1.13.72-1.99.72-.957 0-1.687-.249-2.193-.745-.505-.495-.757-1.241-.757-2.234v-1.75c.957 0 1.672-.027 2.146-.085.474-.055.815-.166 1.02-.33.207-.164.337-.414.389-.752H20V9.329h3.871V8.217H20V7h6.953v1.217H25.61Z"/><circle id="Ellipse 62" cx="6.943" cy="23.9" r="3.611" fill="#fff"/><path id="Line 27" stroke="#fff" stroke-linecap="round" stroke-width="2.222" d="M5.002 31.401h15"/><path id="Line 28" stroke="#fff" stroke-linecap="round" stroke-width="2.222" d="M5.002 35.842h7.778"/></g></svg>